<svg xmlns="http://www.w3.org/2000/svg" width="1535.597" height="781.277" viewBox="0 0 1535.597 781.277">
  <g id="Group_3361" data-name="Group 3361" transform="translate(-68.095 -200.711)" opacity="0.1" style="mix-blend-mode: multiply;isolation: isolate">
    <path id="Path_7811" data-name="Path 7811" d="M557.915,673.638c-4.182-3.508-10.714-2.726-15.089-5.99-4.01-2.992-5.395-8.8-9.776-11.221-3.979-2.194-8.969-.8-13.395-1.831-7.793-1.817-12.7-10.8-20.654-11.63-4.49-.47-9.572,1.726-13.253-.889-3.242-2.3-3.372-6.936-3.99-10.865a30.344,30.344,0,0,0-24.491-24.57c-4.629-.743-9.668-.461-13.607-3.005-3.988-2.576-5.816-7.4-8.95-10.967-5.048-5.749-13-7.793-20.449-9.544L383.962,576c-5.379-1.263-12.311-1.934-15.2,2.776a21.753,21.753,0,0,0-1.8,5.655A17.509,17.509,0,0,1,350.5,596.827a19.48,19.48,0,0,0-11.484-8.885c-3.072-.856-6.361-.952-9.291-2.211a13.051,13.051,0,0,1-6-17.454q.162-.33.341-.652a16.247,16.247,0,0,0-2.776-19.541c-5.152-4.626-12.607-5.743-19.516-5.281-1.809-3.948,1.216-8.4,4.477-11.273s7.22-5.69,7.929-9.975c1.117-6.739-7.483-11.859-14.012-9.85s-10.7,8.353-13.452,14.6c-1.581,3.586-2.924,7.364-5.418,10.389s-6.507,5.191-10.306,4.22c-5.376-1.374-7.453-7.763-8.643-13.183-1.6-7.273-3.2-14.646-2.868-22.084s2.841-15.075,8.326-20.11c8.938-8.205,22.649-7.4,34.712-6.092-2.85-3.211-2.146-8.622.9-11.644a13.238,13.238,0,0,1,12-2.948,16.536,16.536,0,0,1,9.3,5.557c3.428,4.179,4.4,9.822,6.994,14.565s8.416,8.79,13.185,6.246c4.12-2.2,4.773-7.91,3.747-12.465s-3.2-8.982-2.83-13.637c.708-8.879,9.913-14.225,18.036-17.882s17.424-8.575,18.711-17.39a15.87,15.87,0,0,1,.963-5.053,9.916,9.916,0,0,1,3.638-3.421c23.707-15.667,47.807-31.525,74.9-40.085,1.41-.446,1.575.049,3.011-.3,2.011-1.163.678-4.377-1.249-5.673s-4.505-2.287-4.994-4.557c-.359-1.67.624-3.308.879-5,.628-4.148-4.334-7.978-8.187-6.32-2.177-2.881,2.131-6.231,5.613-7.19a152.42,152.42,0,0,1,32.02-5.231,5.778,5.778,0,0,1,3.644.619c1.819,1.26,1.587,4.151.3,5.949s-3.294,2.927-4.9,4.449a13.374,13.374,0,0,0-3.469,13.454c5.653,2.875,11.8,5.835,18.061,4.823s11.818-8.049,8.875-13.667c-2.74-5.232-10.973-6.413-12.388-12.147-1.658-6.714,7.846-12.685,5.707-19.261-.938-2.881-3.809-4.576-6.012-6.655a18.059,18.059,0,0,1-3.951-20.025,22.786,22.786,0,0,1-19.982-6.252c-4.779-4.824-8.592-12.433-15.379-12.217-6.227.2-11.592,7.463-17.415,5.247-1.433-.545-2.943-1.655-4.331-1a3.581,3.581,0,0,0-1.616,2.682c-1.479,7.076,1.067,15.137-2.79,21.251-4.2,6.654-13.9,7.576-18.99,13.575-2.762,3.257-3.831,7.645-6.37,11.079s-7.926,5.616-10.971,2.624a15.125,15.125,0,0,0-4.108-18.389,40.387,40.387,0,0,0-9.076-4.414,53.843,53.843,0,0,1-10.136-5.65,9.966,9.966,0,0,1-3.722-3.982,9.066,9.066,0,0,1,.254-6.3,25.748,25.748,0,0,1,20.49-16.984c4.056-.553,8.777-.358,11.46-3.447,1.421-1.636,2.166-4.108,4.227-4.773a6.232,6.232,0,0,1,3.9.482l15.138,5.328a10.624,10.624,0,0,0,5.393.891,3.656,3.656,0,0,0,3.162-3.842c-.485-2.513-4.353-3.721-4-6.256a4.167,4.167,0,0,1,1.266-2.129,54.126,54.126,0,0,1,42.926-16.953c1.912,3.138-1.111,6.855-3.625,9.534s-4.535,7.466-1.494,9.528a8.33,8.33,0,0,0,4.029.909,35.184,35.184,0,0,1,10.729,3.254q7.848,3.416,15.392,7.472c-.443-3.317-.867-6.81.389-9.912s4.83-5.534,7.953-4.326c3.007,1.164,4.55,5.146,7.755,5.511,4.273.486,5.961-5.828,4.174-9.742s-5.319-7.192-5.615-11.484c-.2-2.895.9-6.487-1.41-8.239a6.3,6.3,0,0,0-2.729-.957l-57.751-10.627c-3.43-.631-8.384-.148-8.536,3.336-.084,1.945,1.652,3.868.884,5.656-.822,1.908-3.52,1.733-5.483,2.409-3.048,1.048-4.579,4.666-4.285,7.877a21.885,21.885,0,0,0,3.617,8.876c-3.758-1.571-9.445-1.859-13.2-3.431a50.808,50.808,0,0,0-3.322-12.713,5.754,5.754,0,0,0-2.926-3.6,6.026,6.026,0,0,0-2.9-.033l-14.906,2.281a5.7,5.7,0,0,0-3.4,1.321c-1.942,2.042-.03,5.328-.09,8.146-.066,3.167-2.88,5.738-5.933,6.589a22.422,22.422,0,0,1-9.426-.117L361.4,259.412a34.372,34.372,0,0,0,15.766-10.522c2.742-3.249,4.2-9.315.238-10.855a9.744,9.744,0,0,0-3.62-.29c-9.442.072-16.873-7.811-25.713-11.131a28.429,28.429,0,0,0-32,9.538l11.1.535a4.923,4.923,0,0,1,2.957.789c2.434,2-.591,5.84-.248,8.969.445,4.068,5.845,4.935,9.916,5.347s9.235,3.718,7.276,7.311c-20.459,7.047-41.28-13.777-62.768-11.214-5.438.649-10.574,2.785-15.883,4.128-32.435,8.207-65.967-13.689-99.1-9.052a125.885,125.885,0,0,0-21.632,5.705c-4.51,1.481-9.213,3.081-12.49,6.515s-4.523,9.307-1.42,12.9a72.547,72.547,0,0,1-25.437-2.419,14.254,14.254,0,0,1,7.326,12.561A150.973,150.973,0,0,0,77,290.017a65.138,65.138,0,0,0,8,10.661L68.1,311.543c5.714,1.439,8.668,9.231,5.345,14.1,5.924-2.635,9.6-9.454,15.932-10.835,4.151-.906,8.374.792,12.31,2.386s8.264,3.141,12.341,1.945,7.082-6.481,4.492-9.848a210.867,210.867,0,0,1,53.568-8.369,6.708,6.708,0,0,1,4.056.77c2.363,1.639,1.741,5.178,1.614,8.049s2.111,6.645,4.677,5.35c-3.019,2.618-.437,7.548,2.459,10.3s6.389,6.553,4.615,10.133c-.462.935-1.247,1.683-1.693,2.627-1.314,2.784.773,6.029,3.234,7.877s5.478,3.141,7.189,5.7.932,7.041-2.125,7.4l-8.693-11.035a22.635,22.635,0,0,0-5.871,11.126c9.217,7.534,10.6,22.871,2.887,31.936-3.944,4.632-9.551,7.449-14.445,11.061s-9.423,8.759-9.411,14.843c.021,10.51-.838,20.276,3.1,30.019a462.611,462.611,0,0,0,25.106,52.378c2.484,4.442,5.693,9.31,10.725,10.074q-9.537-23.219-17.171-47.161c3.314.013,7.146.276,9.089,2.961,1.609,2.224,1.263,5.248,1.763,7.947a24.59,24.59,0,0,0,3.14,7.381l30.363,54.087c2.518,4.485,5.405,9.3,10.215,11.113,3.076,1.161,6.634.943,9.466,2.614,2.219,1.309,3.713,3.635,5.975,4.869,6.4,3.49,15.292-3.2,21.269.963,1.71,1.193,2.8,3.084,4.372,4.448,5.52,4.781,14.577,1.582,20.95,5.149,4.108,2.3,6.237,6.9,8.427,11.061,5.488,10.435,14.368,20.659,26.129,21.489,3.694.262,7.468-.439,11.079.383s7.166,3.973,6.586,7.632c-.993,6.27,2.106,13.137,1.272,19.432-1.515,11.465-17.779,16.5-19.175,27.985-.306,2.513.173,5.108-.426,7.568-.734,3.016-3,5.47-3.8,8.468-1.525,5.68,2.544,11.333,7.016,15.154s9.8,7.118,12.246,12.467c2.584,5.655,1.315,12.247,2.156,18.407,1.834,13.446,13.448,23.416,25.4,29.843,3.641,1.958,7.551,3.854,9.909,7.251,3.076,4.434,2.769,10.28,3.8,15.578,2.515,12.976,13.439,23.667,13.749,36.881.22,9.392-5,17.912-8.12,26.774a62.437,62.437,0,0,0,5.1,51.783c2.333,3.939,5.123,7.654,6.773,11.924,2.945,7.62,1.989,16.283,4.7,23.989,3.591,10.188,13.455,18.6,12.511,29.363,4.479,9.3,14.367,13.869,24.311,16.638l17.823,4.96c3.412.95,6.979,1.908,10.453,1.22s6.791-3.574,6.7-7.115c-8.74-1.971-17.761-4.068-24.966-9.393s-12.139-14.81-9.4-23.342c1.266-3.956,3.963-8.524,1.4-11.794-1.467-1.871-4.152-2.36-5.807-4.068-2.583-2.664-1.695-7.138.161-10.351s4.541-6.082,5.288-9.715a10.137,10.137,0,0,0-4.751-10.547,25.23,25.23,0,0,0,8.821-5.661c2.32-2.649,3.391-6.734,1.566-9.745,5.418.687,11.816,1.024,15.375-3.122,2.84-3.31,2.645-8.258,1.523-12.474s-3.02-8.31-3.079-12.672a230.928,230.928,0,0,0,37.462-1.269,24.3,24.3,0,0,0-11.389-14.265c5.63-.953,10.76-7.694,12.539-13.12s1.325-11.338.226-16.941a9.087,9.087,0,0,1-.169-4.439c.634-2.02,2.618-3.254,4.455-4.309l27.948-16.05a16.3,16.3,0,0,0,4.47-3.3c2.929-3.44,2.494-8.632.994-12.892s-3.9-8.269-4.479-12.749c-1.727-13.4,12.616-23.011,17.457-35.624,1.9-4.949,2.286-10.33,2.654-15.618C562.246,683.9,562.276,677.3,557.915,673.638Z" transform="translate(0 11.604)" fill="#654e1a"/>
    <path id="Path_7812" data-name="Path 7812" d="M270.3,227.309a15.578,15.578,0,0,1,9.782-.233c2.014.692,3.815,1.912,5.837,2.578a5.882,5.882,0,0,0,5.993-.876c1.388-1.416,1.475-3.616,1.478-5.6a4.5,4.5,0,0,0-1.148-3.7,5.885,5.885,0,0,0-2.652-.785,9.119,9.119,0,0,1-4.818-2.592,18.692,18.692,0,0,0-19.711,6.392c-.95,1.252-1.75,2.977-.953,4.332C265.246,228.772,268.154,228,270.3,227.309Z" transform="translate(93.461 7.019)" fill="#654e1a"/>
    <path id="Path_7813" data-name="Path 7813" d="M277.625,215.517c.163.194.355.355.53.533.278.077.556.148.832.239Z" transform="translate(100.074 7.072)" fill="#654e1a"/>
    <path id="Path_7814" data-name="Path 7814" d="M297.351,219.32a6.574,6.574,0,0,0,5.374-4.926,12.37,12.37,0,0,1-8.759-1.674l.3-.6a4.758,4.758,0,0,0-4.6,6.7A19.282,19.282,0,0,0,297.351,219.32Z" transform="translate(105.624 5.445)" fill="#654e1a"/>
    <path id="Path_7815" data-name="Path 7815" d="M336.041,229.175a7.742,7.742,0,0,0,.09,3.678c.724,1.755,2.822,2.414,4.666,2.865a30.8,30.8,0,0,0,10.235,1.306,10.426,10.426,0,0,0,8.473-5.178,37.2,37.2,0,0,1,1.761-4.164c4.423-6.733,17.557,1.408,22.3-5.1,1.673-2.292,1.519-5.743,3.7-7.559a8.3,8.3,0,0,1,3.8-1.451,266.891,266.891,0,0,1,28.886-4.114c4.594-.4,10.581-2.049,10.62-6.661a80.012,80.012,0,0,0-51.038,6.865c-5.689,2.85-13.214,8.845-18.695,5.067-2.052-1.414-1.95-5.223-4.774-6.815-2.887-1.625-6.71-.965-9.774-.313a88.485,88.485,0,0,0-19.714,6.7A14.815,14.815,0,0,1,336.041,229.175Z" transform="translate(123.457 0.28)" fill="#654e1a"/>
    <path id="Path_7816" data-name="Path 7816" d="M528.31,263.393c3.168-.9,6.178-3.641,5.937-6.926-.2-2.807-2.578-4.869-4.434-6.985s-3.313-5.37-1.608-7.608l30.728-5.739c-2.178-5.937-3.874-13.755,1.13-17.619,1.807-1.393,4.224-1.95,5.763-3.636,2.62-2.872,1.3-7.821-1.723-10.264s-7.116-3.01-10.99-3.332c-13.474-1.12-27.026-.38-40.526.361l-79.169,4.34c-5.313.291-11.447-.154-16.319,1.658-4.125,1.535-7.059,4.352-11.775,5.34-8.709,1.828-18.294.591-26.174,5.48l8.122,1.562a10.525,10.525,0,0,0-10.982,10.049,10.674,10.674,0,0,0,.028,1.358c7.607,2.54,15.9.068,23.914.4S417.567,237.9,416.2,245.8c-.414,2.389-1.8,4.777-1.077,7.094.5,1.624,1.936,2.775,2.744,4.27,1.683,3.116.338,7.057-1.789,9.89s-4.984,5.092-6.85,8.1c-4.643,7.487-2.005,17.165.76,25.529a22.5,22.5,0,0,0,4.328,8.643c4.1,4.356,10.775,4.736,16.755,4.823,4.352.064,9.337-.152,12.09-3.524,3.594-4.4,1.08-11.271,3.446-16.438,2.148-4.691,7.623-6.705,12.582-8.133,9.087-2.615,18.346-4.839,26.935-8.79,10.667-4.906,20.635-12.552,32.36-13.183C521.772,263.906,525.142,264.294,528.31,263.393Z" transform="translate(147.194 0)" fill="#654e1a"/>
    <path id="Path_7817" data-name="Path 7817" d="M493.028,254.976a29.059,29.059,0,0,1-15.25,3.119,3.277,3.277,0,0,0-2.364.536,2.993,2.993,0,0,0-.77,1.823,12.048,12.048,0,0,0,1.75,8.619,8.441,8.441,0,0,0,7.725,3.7c3.657-.467,6.354-3.586,9.715-5.11,5.183-2.345,27.193-6,11.967-14.225C500.553,250.607,497.164,253.11,493.028,254.976Z" transform="translate(194.087 24.575)" fill="#654e1a"/>
    <path id="Path_7818" data-name="Path 7818" d="M565.626,219.877a5.532,5.532,0,0,0,2.073.33l7.228.216c3.072.092,6.908.746,7.732,3.706.613,2.2-.758,5.021.9,6.59a4.653,4.653,0,0,0,2.459.96,16.782,16.782,0,0,0,7.283.235c5.26-1.411,2.5-4.622,4.152-7.48,2.536-4.374,2.1-1.726,6.562-4.233,3.3-1.85,7.561-5.209,4.808-9.927-4.787-8.2-33.3-2.531-40.36.994a8.688,8.688,0,0,0-4.229,3.681A3.714,3.714,0,0,0,565.626,219.877Z" transform="translate(236.757 2.552)" fill="#654e1a"/>
    <path id="Path_7819" data-name="Path 7819" d="M660.857,216.989c4.026,1.2,8.084,4.294,11.974,2.708,2.411-.983,3.2-3.495,5.2-4.826,1.38-.919,6.612-2.406,7.2-3.334,4.73-7.5-7.636-4.974-11.271-4.489l-4.2.56c-9.466,1.263-18.984,2.539-28.1,5.38a46.738,46.738,0,0,0,12.306,3.02A37.818,37.818,0,0,1,660.857,216.989Z" transform="translate(273.941 2.646)" fill="#654e1a"/>
    <path id="Path_7820" data-name="Path 7820" d="M662.933,239.165c.238,3.591,4.062,5.673,7.375,7.075l13.418,5.681c1.628-2.295.137-5.461-1.544-7.716s-3.682-4.864-2.939-7.577c.848-3.1,4.624-4.151,7.79-4.684,5.157-.869,19.072-.8,17.4-9.112-1.971-9.8-17.025-4.765-22.2-1.871A78.768,78.768,0,0,0,666.74,232.3C664.768,234.159,662.754,236.464,662.933,239.165Z" transform="translate(284.098 7.812)" fill="#654e1a"/>
    <path id="Path_7821" data-name="Path 7821" d="M704.887,557.824c-2.454,1.333-8.137,11.867-10.71,14.853-4.637,5.384-5.25,10.606-7.691,17.129-3.057,8.17-9.2,14.977-12.028,23.159-1.277,3.7-1.4,8.056.811,11.285,2.479,3.623,7.441,4.974,11.735,4.055A21.14,21.14,0,0,0,697.9,621.3a37.51,37.51,0,0,0,6.268-9.61,74.982,74.982,0,0,0,4.644-17l4.167-21.875C713.91,567.928,713.873,552.94,704.887,557.824Z" transform="translate(289.171 170.101)" fill="#654e1a"/>
    <path id="Path_7822" data-name="Path 7822" d="M1012.036,670.295a2.7,2.7,0,0,0-1.41-.165c-2.983.248-5.7,1.717-8.518,2.736s-6.1,1.56-8.687.046L999.5,671.9a65.523,65.523,0,0,1-8.538-4.065,71.963,71.963,0,0,0-4.329,23.59l20.119-11.385c3.028-1.713,6.457-4.093,6.392-7.57A2.391,2.391,0,0,0,1012.036,670.295Z" transform="translate(438.708 223.106)" fill="#654e1a"/>
    <path id="Path_7823" data-name="Path 7823" d="M1094.442,670.506c-4.35-1.012-12.594,5.588-16.736,6.929a43.59,43.59,0,0,0-6.453,2.315c-4.616,2.349-7.757,6.81-11.912,9.9-3.976,2.961-8.762,4.586-13.46,6.167-1.383,1.222-.748,3.682.752,4.755a9.339,9.339,0,0,0,5.315,1.2c4.88.106,10.023.154,14.3-2.2a45.217,45.217,0,0,0,6.732-5.343c5-4.171,11-6.924,16.944-9.582a19.456,19.456,0,0,0,5.906-3.531C1099.563,677.433,1099.826,671.757,1094.442,670.506Z" transform="translate(466.639 224.331)" fill="#654e1a"/>
    <path id="Path_7824" data-name="Path 7824" d="M1114.422,664.117c-1.791-.573-3.763-.3-5.562-.848s-3.45-2.567-2.527-4.205l-1.676-.189a16.785,16.785,0,0,0-5.135-13.751c-.056,5.064-.21,10.46-3.057,14.648-2.03,2.985-5.213,5-7.437,7.843s-3.209,7.348-.6,9.842a9.773,9.773,0,0,0,5.792,1.995c5.192.612,11.2.952,14.843-2.8,1.987-2.047,2.955-5.079,5.378-6.584a6.531,6.531,0,0,0,2.36-1.689C1117.8,666.787,1116.211,664.691,1114.422,664.117Z" transform="translate(486.581 212.258)" fill="#654e1a"/>
    <path id="Path_7825" data-name="Path 7825" d="M987.4,517.585c.65,3.619,3.747,6.333,7.051,7.947s6.952,2.425,10.272,4.006a24.528,24.528,0,0,1,11.879,12.357c1.068,2.5,1.742,5.213,3.362,7.393,3.311,4.455,9.587,5.433,15.125,5.068,7.22-.474,14.761-2.552,21.48.139,5.139,2.058,8.817,6.556,13.108,10.054s10.334,6.092,15.261,3.57a25.231,25.231,0,0,1-17.456-24.277c4.832.443,18.751.272,18-7.939-.635-6.958-12.518-2.246-16.667-1.5a23.339,23.339,0,0,1-8.328.492c-4.622-.851-8.22-4.334-11.951-7.19a52.71,52.71,0,0,0-30.8-10.763C1007.6,516.754,997.363,519.5,987.4,517.585Z" transform="translate(439.075 151.033)" fill="#654e1a"/>
    <path id="Path_7826" data-name="Path 7826" d="M1113.074,626.936c-4.872-9.98-14.458-17.836-16.229-28.8-1.362-8.436,1.962-18.272-3.415-24.911-2.736-3.378-7.369-5.243-9-9.274-1.024-2.537-.612-5.415-1.163-8.094s-2.89-5.483-5.537-4.789c-7.682,2.017-10.133,25.747-14.246,31.513-6.253,8.765-19.088,2.991-17.118-7.808.857-4.706,5.551-8.861,4.089-13.415-1.011-3.15-4.663-4.706-7.97-4.783s-6.556.907-9.863,1a47.811,47.811,0,0,0-6.459.092c-6.564,1.079-10.609,7.958-16.8,10.405-3.762,1.488-7.986,1.2-11.9,2.231-8.88,2.335-14.5,10.726-20.707,17.492a73.892,73.892,0,0,1-37.508,21.873c-5.049,1.17-10.476,1.918-14.49,5.2-5.315,4.343-6.623,11.787-7.806,18.549a306.248,306.248,0,0,1-14.914,54.746l21.087,2.692c4.009.513,8.162,1.014,12.026-.174a34.932,34.932,0,0,0,7.91-4.213,78.968,78.968,0,0,1,30.851-11.137c5.522-.758,11.311-.9,16.493,1.155s9.628,6.707,10.063,12.264a12.952,12.952,0,0,1,12.947,3.149,22.493,22.493,0,0,1,6.181,12.34c.556,2.884,1.111,6.34,3.789,7.551,2.184.989,4.688-.075,7.078-.266,8.108-.65,14.834,8.8,22.8,7.175,8.547-1.745,10.643-14.544,18.981-17.108,4.788-1.472,11.5.318,13.8-4.136,2.021-3.926-2.011-8.456-1.594-12.852.511-5.413,6.9-7.71,11.818-10.02C1113.244,666.619,1121.3,643.779,1113.074,626.936Z" transform="translate(398.307 167.284)" fill="#654e1a"/>
    <path id="Path_7827" data-name="Path 7827" d="M944.525,542.216c18.042,2.472,35.9,8.592,54.019,6.793a274.922,274.922,0,0,0-31.512-7.313l-17.74-3.388a136.99,136.99,0,0,0-14.405-2.227c-10.12-.836-17.78,1.84-27.732-.952-2.624-.736-5.491-1.461-8.006-.409s-3.985,4.746-1.967,6.578C912.976,540.683,928.866,540.072,944.525,542.216Z" transform="translate(395.531 159.276)" fill="#654e1a"/>
    <path id="Path_7828" data-name="Path 7828" d="M952.267,486.077c-4.3-3.178-8.409-.241-11.5,3.267-6.51,7.4-9.588,15.41-21.556,14.41-1.312-.109-2.936-.2-3.614.923-.647,1.077.094,2.5-.254,3.709-.476,1.651-2.638,2.072-4.34,1.847s-3.543-.762-5.052.058a4.283,4.283,0,0,0-1.656,4.864,12.513,12.513,0,0,0,2.921,4.655,47.566,47.566,0,0,0,7.576,7.6c5.429,4.006,12.783,5.937,16.2,11.753a7.806,7.806,0,0,0,2.165,2.912c1.642,1.04,3.781.25,5.548-.559l6.194-2.83a7.048,7.048,0,0,0,2.9-1.97c1.414-1.921.545-4.65-.643-6.719s-2.707-4.21-2.453-6.581c.455-4.228,5.891-5.845,8.127-9.463,2.253-3.648.786-8.346,1.046-12.625C954.182,496.326,957.326,489.816,952.267,486.077Z" transform="translate(399.282 135.646)" fill="#654e1a"/>
    <path id="Path_7829" data-name="Path 7829" d="M964.756,503.7A6.844,6.844,0,0,0,974.349,505q.233-.177.448-.372a7.362,7.362,0,0,0-.3-10.274c-1.823-1.664-4.443-2.382-5.965-4.325a9.063,9.063,0,0,1-1.546-3.762,24.629,24.629,0,0,1,.387-11.8,5.252,5.252,0,0,0,.3-3.088c-.686-1.993-3.384-2.134-5.278-3.059-4.3-2.1-4.2-8.171-3.446-12.9-.5,3.147-11.712-2.206-12.885-3.988-2.333-3.542-1.064-10.374-1.525-14.287-5.034,2.426-6.976,9.619-4.391,14.569,2.116,4.05,6.524,6.466,8.83,10.41,2.5,4.273,2.215,9.8,4.926,13.938,2.782,4.251,8.38,6.507,9.94,11.342C965.541,492.676,961.677,499.09,964.756,503.7Z" transform="translate(415.955 112.921)" fill="#654e1a"/>
    <path id="Path_7830" data-name="Path 7830" d="M912.857,539.092c-3.814-4.146-7.988-7.964-11.587-12.3a10.328,10.328,0,0,1-2.963-6.185c-.018-2.335,2.11-4.776,4.371-4.2-2.75-.7-4.789-5.284-8.824-6.145-3.372-.72-4.189,1.368-8.2-.353-7.656-3.283-13.661-13.536-19.021-19.539-2.07-2.315-5.186-4.739-7.961-3.342-2.116,1.065-2.7,3.994-1.869,6.215a13.688,13.688,0,0,0,4.514,5.381c5.782,4.767,12.007,9.071,17.05,14.614,9.027,9.918,13.807,23.3,23.624,32.44a13.236,13.236,0,0,0,7.438,4.025c2.859.266,6.07-1.565,6.4-4.417C916.1,542.938,914.457,540.834,912.857,539.092Z" transform="translate(376.523 136.554)" fill="#654e1a"/>
    <path id="Path_7831" data-name="Path 7831" d="M1003.06,346.637c2.166-1.308,4.764-5.219,3.69-7.882-1.7-4.21-4.768-.666-8.576-1.37a63.55,63.55,0,0,1-6.468-2.311c-5.684-1.705-13.2,2.472-12.446,8.357.5,3.911,4.142,6.547,6.153,9.94,2.98,5.03,2.185,11.41.619,17.044a13.333,13.333,0,0,1-2.15,4.849,16.433,16.433,0,0,1-5.093,3.663,68.107,68.107,0,0,0-19.933,16.935,4.885,4.885,0,0,0-1.2,2.268c-.27,1.987,1.726,3.435,2.856,5.093,2.508,3.681.695,8.635.943,13.084a3.7,3.7,0,0,0,1.559,3.245c1.512.768,3.3-.536,4.124-2.021,2.719-4.926.671-12.836,5.773-15.212.965-.449,2.135-.638,2.778-1.486,1.022-1.345.037-3.336.554-4.944.777-2.413,4.078-2.522,6.612-2.414a37.545,37.545,0,0,0,12.891-1.717,8.583,8.583,0,0,0,4.267-2.471c1.525-1.9,1.39-4.61,1.085-7.031A95.284,95.284,0,0,0,989.835,347.9C994.317,348.476,999.193,348.973,1003.06,346.637Z" transform="translate(424.853 63.99)" fill="#654e1a"/>
    <path id="Path_7832" data-name="Path 7832" d="M810.92,510.405a8.154,8.154,0,0,0-5.429-.567l-24.734,3.118c-3.072.387-6.329.749-9.149-.528s-4.844-4.845-3.347-7.555c4.2-7.61-4.44-17.225-8.279-25.023a369.267,369.267,0,0,0-36.77-59.631,6.058,6.058,0,0,1-1.612-3.5l7.02.233c-2.37-8.5-6.28-17.808-14.541-20.917-4.654-1.754-9.81-1.147-14.776-.876-14.225.777-29.475-1.37-43.554-3.548.536,2.877,1.062,5.906.12,8.677s-3.908,5.085-6.708,4.236c-2.173-.659-3.428-2.844-4.972-4.511-8.582-9.265-27.945-3.9-33.246-15.363-2.163-4.678-.693-10.283-2.169-15.221a13.548,13.548,0,0,0-13.72-9.321,28.2,28.2,0,0,0-7.895,2.357,199.083,199.083,0,0,1-52.31,13.083,43.05,43.05,0,0,0-10.051,1.829c-7.37,2.672-12.406,9.5-15.989,16.477s-6.23,14.521-11.033,20.715c-5.05,6.51-12.127,11.07-18.727,16a19.108,19.108,0,0,0-6.176,6.473c-1.432,2.939-1.351,6.355-1.24,9.621l1.349,39.665c.174,5.1.392,10.386,2.674,14.952,2.852,5.7,8.484,9.435,12.393,14.472a28.342,28.342,0,0,1,5.879,18.1c-.083,2.626-.343,5.732,1.7,7.381a7.464,7.464,0,0,0,4.182,1.2l53.655,4.392c9.438.773,19.9,2.044,26.059,9.234,2.908,3.394,5.244,8.275,9.7,8.638,1.911.157,3.769-.628,5.681-.78,4.821-.381,9.056,3.279,11.729,7.31a32.426,32.426,0,0,1,5.209,20.8c-.439,4.6-1.865,9.068-2.172,13.677-1.169,17.536,13.7,32.772,13.986,50.344.168,10.336-4.737,19.994-9.522,29.158,7.721,11.7,1.4,27.272,4.473,40.946,2.915,12.974,13.733,23.129,16.428,36.15,1.234,5.961,1.3,13.3,6.562,16.366a14.935,14.935,0,0,0,7.424,1.486,97.875,97.875,0,0,0,44.572-10.147c6.5-3.226,13.236-8.04,14.371-15.206.915-5.779-2.015-12.243.966-17.278,3.515-5.933,12.521-5.463,17.693-10.024,8.391-7.4,1.848-21.514,5.247-32.174,3.057-9.581,13.576-14.67,18.791-23.269a41.362,41.362,0,0,0,4.366-11.834,168.788,168.788,0,0,0,4.442-30.182,181.182,181.182,0,0,1,1.365-18.488c5.622-34.926,40.153-58.315,51.363-91.869C813.268,516.487,813.772,512.219,810.92,510.405Z" transform="translate(192.708 76.118)" fill="#654e1a"/>
    <path id="Path_7833" data-name="Path 7833" d="M1034.187,558.122c5.577,13.418,6.1,28.32,9.206,42.514s9.962,28.972,23.138,35.1c2.447-11.316-9.214-20.27-13.729-30.929-3.085-7.288-2.748-15.506-2.358-23.41.08-1.611.325-3.5,1.739-4.278a3.881,3.881,0,0,1,2.506-.248c9.522,1.58,13.544,15.383,23.16,16.223,6.045.527,11.382-4.988,12.418-10.968s-1.269-12.059-4.374-17.273c-4.244-7.131-10.206-13.745-11.171-21.987s7.09-17.861,14.569-14.269a167.353,167.353,0,0,0,.434,22.869c1.9-.095,5.294-1.027,7.19-1.122-2.649-2.357-2.561-6.707-.836-9.805s4.678-5.278,7.446-7.494c9.7-7.768,18.051-17.066,26.234-26.42,4.684-5.355,9.414-10.878,12.047-17.488s2.834-14.614-1.25-20.44c-1.755-2.5-4.286-4.654-4.9-7.65a42.52,42.52,0,0,1-.095-5.607c-.346-4.944-4.291-8.749-6.769-13.04-1.837-3.18-2.94-6.81-5.278-9.643s-6.6-4.641-9.714-2.692a15.13,15.13,0,0,1,3.13-14.4c6.691,9.576,23.467,5.727,30.937,14.711,2.468,2.967,3.446,6.859,5.087,10.352s4.5,6.939,8.35,7.206c5.08.353,8.906-5.364,8.459-10.436s-3.8-9.37-7.211-13.151-7.134-7.577-8.626-12.444a8.429,8.429,0,0,1,6.476-10.809c4.2-.863,9-2.178,10.769-6.088a13.467,13.467,0,0,0,.787-5.763q-.193-15.023-1.606-29.962L1195.177,383c3.146-12.419-3.372-25.786-13.31-33.871s-22.711-11.777-35.3-14.161a19.064,19.064,0,0,1-7.926-2.706c-2.273-1.665-3.694-4.873-2.4-7.378a8.992,8.992,0,0,1,4-3.354,57.507,57.507,0,0,1,13.978-6.1c10.327-2.462,22.631.486,30.641-6.481a9.121,9.121,0,0,0,1.238-6.1c2.685-1.984,5.245,3.831,8.582,3.7,1.888-.072,3.054-2,4.508-3.209,3.115-2.587,8.127-1.692,11.029,1.133s4.037,7.027,4.29,11.069a32.756,32.756,0,0,1-2.488,14.693c-1.158,2.753-2.732,5.523-2.512,8.5.353,4.789,5.115,7.973,9.637,9.591s9.568,2.6,12.907,6.048c2.648,2.74,5.049,7.258,8.743,6.323a5.708,5.708,0,0,0,3.051-2.367c4.523-6.272,2.14-15.057-1.206-22.028a101.466,101.466,0,0,0-11.948-19.1c3.387-3.95,9.672.474,14.868.2,5.8-.31,9.213-6.41,12.01-11.5s7.815-10.63,13.352-8.867c3.072-4.406-2.227-10.049-7.338-11.7s-11.4-2.469-13.836-7.257l25.818,3.772c1.562-3.028.377-6.9-1.948-9.386a23.331,23.331,0,0,0-8.724-5.154,220.183,220.183,0,0,0-78.47-15.592c-10.538-.137-21.276.462-31.426-2.376-5.367-1.5-10.478-3.944-15.969-4.894-8.739-1.512-17.7.866-26.547.2-12.332-.924-23.37-7.607-35.022-11.75s-26.309-6.29-35.141,2.366c2.638,2.887,1.253,7.944-1.965,10.164s-7.5,2.191-11.317,1.348c-9.38-2.075-17.535-8.436-27.07-9.612-5.724-.706-11.483.523-17.185,1.393-15.6,2.382-31.473,2.1-47.253,1.8-2.058-.038-4.433-.236-5.618-1.919-3.716-5.277,10.172-10.142,7.447-15.992-22.708-12.057-49.961-10.255-75.584-8.14a20.839,20.839,0,0,0,21.748,8.2c.756,3.044-1.481,6.181-4.3,7.564a22.894,22.894,0,0,1-9.2,1.585c-18.467.793-36.626,4.8-54.672,8.8-2.379,3.551,1.345,8,4.876,10.411s7.784,5.887,6.516,9.968c-1.323,4.251-7.8,4.378-11.15,1.444s-4.66-7.483-6.766-11.4-6.041-7.7-10.408-6.831a6.634,6.634,0,0,0-5.067,7.294,129.693,129.693,0,0,0-61.438,15.881,17.245,17.245,0,0,1-6.583,2.574,8.388,8.388,0,0,1-8.752-7.759c-4.355,8.545-11.194,18.382-20.707,17.165-5.386-.69-9.557-4.881-13.279-8.833,5.854-.207,8.35-1.665,14.2-1.871a5,5,0,0,0,2.68-.6A4.249,4.249,0,0,0,702.829,264c-.4-6.265-5.5-11.441-11.305-13.835S679.273,247.623,673,247.5l-21.2-.4a58.149,58.149,0,0,0-31.253,6.055c-6.261,2.623-12.741,6.187-19,8.81a56.511,56.511,0,0,1-16.8,26.062c-3.313,2.895-7,5.438-9.7,8.916s-4.261,8.26-2.584,12.328a5,5,0,0,0,1.98,2.5,6.946,6.946,0,0,0,5,.115c3.827-.879,7.78-1.77,11.645-1.074s7.65,3.4,8.331,7.271c.281,1.6.117,3.495,1.333,4.575a4.93,4.93,0,0,0,3.688.721l11.372-.819a12.172,12.172,0,0,0-2.174-10.32,9.769,9.769,0,0,0,6.37-17.069c-2.434-2.163-6.363-3.984-5.826-7.2l16.9-9.424c3.529-1.967,7.747-3.978,11.423-2.3,5.386,2.454,4.836,10.575,1.562,15.5-1.37,2.061-3.042,4.886-1.358,6.7a5.032,5.032,0,0,0,2.165,1.157l23.157,7.824a26.086,26.086,0,0,1-21.233,3.84l1.791,13.272c-2.1-2.352-6.1-1.021-8.381,1.163s-4.052,5.139-7.02,6.209c-2.929,1.055-6.151-.046-9.265-.034-7.4.03-14.306,6.354-21.449,4.411-3.833-1.043-6.614-4.241-9.764-6.661s-7.712-4.093-10.968-1.817a14.889,14.889,0,0,1-12.772,15.522,7.954,7.954,0,0,0-3.06.626c-1.93,1.065-2.154,3.667-2.648,5.817-1.609,7.013-8.2,11.856-14.992,14.224s-14.095,2.893-21,4.9a4.938,4.938,0,0,0-3.461,2.33c-.931,2.233,1.435,4.312,3.2,5.968a16.032,16.032,0,0,1,4.462,15.942,14.224,14.224,0,0,1-12.911,9.965c-3.846.055-8.2-1.448-11.224.934-2.143,1.69-2.641,4.683-2.985,7.39l-1.711,13.483c-.4,3.177-.523,7.038,2.113,8.858a8.329,8.329,0,0,0,4.57,1.074c16.3.437,33.756-6.256,41.9-20.39,1.532-2.661,2.711-5.529,4.471-8.046,7.4-10.593,23.63-11.886,34.922-5.6s18.355,18.158,23.06,30.2a3.685,3.685,0,0,0,1.714,2.305,3.212,3.212,0,0,0,2.643-.461,13.9,13.9,0,0,0,5.228-18.319c-2.571-4.539-7.472-7.137-11.386-10.586s-7.044-9.142-4.569-13.734l26.664,14.735c2.621,1.448,5.441,3.121,6.479,5.93,1.284,3.474-.633,7.227-1.083,10.9a14.362,14.362,0,0,0,6.207,13.372,15.007,15.007,0,0,0,14.786.83c1.822-8.173-7.257-17.712-1.854-24.11,4.708-5.575,16.062-1.885,19.414-8.368,2.536-4.9-2.286-11.314.269-16.206,2.284-4.375,8.6-4.25,13.31-2.776s9.941,3.642,14.32,1.364c2.5-1.3,4.114-3.808,6.343-5.522s5.91-2.351,7.546-.062c2.283,3.19-1.943,7.524-1.042,11.342,1.083,4.585,7.759,4.43,11.484,7.313,5.1,3.947,2.713,12.852-2.794,16.206s-12.443,2.834-18.86,2.2l-27.436-2.7c-3.054-.3-6.487-.489-8.812,1.513-3.3,2.839-2.305,8.266-.025,11.97,6.389,10.38,21.73,9.474,33.907,8.937,5.331-.235,9.634,4.795,10.849,9.992s.235,10.615,0,15.946a57.5,57.5,0,0,0,15.769,41.831c4.36,4.539,9.675,8.659,11.608,14.651,1.334,4.137.85,8.648,1.785,12.894,2.84,12.9,18.277,22.414,15.717,35.373,10.736,4.883,23.447-.674,32.454-8.288s16.339-17.4,26.647-23.129c3.177-1.767,6.649-3.159,9.253-5.7s4.1-6.714,2.278-9.86c-2.45-4.227-9.455-4.585-10.97-9.229-.993-3.051,1.011-6.584-.315-9.505-1.386-3.051-5.637-3.589-8.805-2.494s-5.863,3.31-9.055,4.331c-6.178,1.973-13.395-1.294-16.583-6.94a18.036,18.036,0,0,1,1.1-18.451,111.86,111.86,0,0,0,22.934,11.423c14.377,5.206,29.672,7.415,44.21,12.15s28.927,12.635,36.7,25.8a8.653,8.653,0,0,0,2.222,2.864c4.165,2.924,8.526-3.475,9.643-8.442a586.206,586.206,0,0,0,18.009,64.292c1.5,4.371,3.18,8.925,6.652,11.973,6.652,5.838,17.785,3.582,23.816-2.9s7.905-15.813,8.1-24.663c.176-8.185-.779-16.827,2.868-24.157,2.506-5.037,6.906-8.824,11.193-12.468,5.213-4.431,11.14-9.121,17.975-8.807,6.519.3,11.97,5.2,15.528,10.67s5.816,11.713,9.483,17.111C1021.052,559.061,1029.952,563.547,1034.187,558.122Z" transform="translate(207.438 5.759)" fill="#654e1a"/>
    <path id="Path_7834" data-name="Path 7834" d="M503.514,299.266c-2.785,4.545-5.25,9.974-3.635,15.055A4.276,4.276,0,0,0,501.835,317a5.126,5.126,0,0,0,2.281.358,76.311,76.311,0,0,0,9.182-.564c1.871-.229,4.044-.757,4.767-2.5.95-2.289-1.35-4.878-.68-7.262a7.939,7.939,0,0,1,1.959-2.806,3.709,3.709,0,0,0,1.156-3.113c-.27-1.12-1.984-1.754-2.6-.782l-.842-1.349a6.21,6.21,0,0,0,1.692-6.24,11.607,11.607,0,0,0-12.016,2.27A20.264,20.264,0,0,0,503.514,299.266Z" transform="translate(205.981 43.583)" fill="#654e1a"/>
    <path id="Path_7835" data-name="Path 7835" d="M519.231,294.054a9.852,9.852,0,0,1,2.837,1.141c2.354,1.825.854,5.557,1.3,8.5.5,3.307,3.7,6.082,3.115,9.375-.463,2.593-3.233,4.647-2.787,7.245.467,2.719,3.919,3.536,6.668,3.755a8.39,8.39,0,0,0,4.725-.542,7.313,7.313,0,0,0,2.982-4.318,27.671,27.671,0,0,0,1.393-10.42,9.876,9.876,0,0,0-1.175-4.6,25.6,25.6,0,0,0-2.745-3.144c-5.271-6.131.279-15.276-9.7-18.089a25.7,25.7,0,0,0-8.32-.523,3.645,3.645,0,0,0-1.773.4,2.956,2.956,0,0,0-1.092,1.581A7.86,7.86,0,0,0,519.231,294.054Z" transform="translate(213.112 38.972)" fill="#654e1a"/>
  </g>
</svg>
