<svg xmlns="http://www.w3.org/2000/svg" width="121" height="112" viewBox="0 0 121 112">
  <g id="Group_334" data-name="Group 334" transform="translate(-185 -79)">
    <path id="Subtraction_1" data-name="Subtraction 1" d="M27,55h-.009A26.976,26.976,0,0,1,0,28V27A26.977,26.977,0,0,1,27,0Z" transform="translate(185 79)" fill="#fff"/>
    <path id="Subtraction_2" data-name="Subtraction 2" d="M27,55h-.009A26.976,26.976,0,0,1,0,28V27A26.977,26.977,0,0,1,27,0Z" transform="translate(306 134) rotate(180)" fill="#dfc58a"/>
    <path id="Subtraction_3" data-name="Subtraction 3" d="M27,55h-.009A26.976,26.976,0,0,1,0,28V27A26.977,26.977,0,0,1,27,0Z" transform="translate(306 191) rotate(180)" fill="#dfc58a"/>
    <path id="Subtraction_4" data-name="Subtraction 4" d="M27,55h-.009A26.976,26.976,0,0,1,0,28V27A26.977,26.977,0,0,1,27,0Z" transform="translate(267 191) rotate(180)" fill="#fff"/>
    <rect id="Rectangle_27" data-name="Rectangle 27" width="43" height="44" rx="21.5" transform="translate(224 79)" fill="#fff"/>
    <rect id="Rectangle_52" data-name="Rectangle 52" width="43" height="44" rx="21.5" transform="translate(187 145)" fill="#fff"/>
  </g>
</svg>
