<svg xmlns="http://www.w3.org/2000/svg" xmlns:xlink="http://www.w3.org/1999/xlink" width="231" height="49" viewBox="0 0 231 49">
  <defs>
    <clipPath id="clip-path">
      <rect id="Rectangle_138" data-name="Rectangle 138" width="49" height="8" transform="translate(555 72)" fill="#1d1e1e"/>
    </clipPath>
  </defs>
  <g id="Group_42" data-name="Group 42" transform="translate(-373 -38)">
    <g id="Group_34" data-name="Group 34" transform="translate(188 -41)">
      <path id="Subtraction_1" data-name="Subtraction 1" d="M12,24h0A12,12,0,0,1,3.515,3.515,11.921,11.921,0,0,1,12,0V24Z" transform="translate(185 79)" fill="#1d1e1e"/>
      <path id="Subtraction_2" data-name="Subtraction 2" d="M12,24h0A12,12,0,0,1,3.515,3.515,11.921,11.921,0,0,1,12,0V24Z" transform="translate(238 103) rotate(180)" fill="#e0c58a"/>
      <path id="Subtraction_3" data-name="Subtraction 3" d="M12,24h0A12,12,0,0,1,3.515,3.515,11.921,11.921,0,0,1,12,0V24Z" transform="translate(238 128) rotate(180)" fill="#e0c58a"/>
      <path id="Subtraction_4" data-name="Subtraction 4" d="M12,24h0A12,12,0,0,1,3.515,3.515,11.921,11.921,0,0,1,12,0V24Z" transform="translate(221 128) rotate(180)" fill="#1d1e1e"/>
      <rect id="Rectangle_27" data-name="Rectangle 27" width="19" height="19" rx="9.5" transform="translate(202 79)" fill="#1d1e1e"/>
      <rect id="Rectangle_52" data-name="Rectangle 52" width="19" height="19" rx="9.5" transform="translate(186 108)" fill="#1d1e1e"/>
    </g>
    <text id="Service_Base" data-name="Service Base" transform="translate(443 65)" fill="#1d1e1e" font-size="24" font-family="Exo-Bold, Exo" font-weight="700"><tspan x="0" y="0">SERVICE </tspan><tspan y="0" fill="#e0c58a">BASE</tspan></text>
    <text id="Studies_Consulting" data-name="Studies &amp; Consulting" transform="translate(443 79)" fill="#e0c58a" font-size="10" font-family="Roboto-Regular, Roboto"><tspan x="0" y="0">STUDIES &amp; CONSULTING</tspan></text>
    <g id="Mask_Group_220" data-name="Mask Group 220" clip-path="url(#clip-path)">
      <g id="Group_2296" data-name="Group 2296" transform="translate(535.881 84.943) rotate(-45)">
        <rect id="Rectangle_28" data-name="Rectangle 28" width="0.996" height="62.246" transform="translate(11.599 0)" fill="#1d1e1e"/>
        <rect id="Rectangle_138-2" data-name="Rectangle 138" width="0.996" height="62.246" transform="translate(35.599 0)" fill="#1d1e1e"/>
        <rect id="Rectangle_150" data-name="Rectangle 150" width="0.996" height="62.246" transform="translate(59.599 0)" fill="#1d1e1e"/>
        <rect id="Rectangle_37" data-name="Rectangle 37" width="0.996" height="62.246" transform="translate(19.599 0)" fill="#1d1e1e"/>
        <rect id="Rectangle_139" data-name="Rectangle 139" width="0.996" height="62.246" transform="translate(43.599 0)" fill="#1d1e1e"/>
        <rect id="Rectangle_151" data-name="Rectangle 151" width="0.996" height="62.246" transform="translate(67.599 0)" fill="#1d1e1e"/>
        <rect id="Rectangle_31" data-name="Rectangle 31" width="0.996" height="62.246" transform="translate(7.599 0)" fill="#1d1e1e"/>
        <rect id="Rectangle_140" data-name="Rectangle 140" width="0.996" height="62.246" transform="translate(31.599 0)" fill="#1d1e1e"/>
        <rect id="Rectangle_152" data-name="Rectangle 152" width="0.996" height="62.246" transform="translate(55.599 0)" fill="#1d1e1e"/>
        <rect id="Rectangle_39" data-name="Rectangle 39" width="0.996" height="62.246" transform="translate(15.599 0)" fill="#1d1e1e"/>
        <rect id="Rectangle_141" data-name="Rectangle 141" width="0.996" height="62.246" transform="translate(39.599 0)" fill="#1d1e1e"/>
        <rect id="Rectangle_153" data-name="Rectangle 153" width="0.996" height="62.246" transform="translate(63.599 0)" fill="#1d1e1e"/>
        <rect id="Rectangle_33" data-name="Rectangle 33" width="0.996" height="62.246" transform="translate(3.599 0)" fill="#1d1e1e"/>
        <rect id="Rectangle_142" data-name="Rectangle 142" width="0.996" height="62.246" transform="translate(27.599 0)" fill="#1d1e1e"/>
        <rect id="Rectangle_154" data-name="Rectangle 154" width="0.996" height="62.246" transform="translate(51.599 0)" fill="#1d1e1e"/>
        <rect id="Rectangle_35" data-name="Rectangle 35" width="0.996" height="62.246" transform="translate(-0.401 0)" fill="#1d1e1e"/>
        <rect id="Rectangle_143" data-name="Rectangle 143" width="0.996" height="62.246" transform="translate(23.599 0)" fill="#1d1e1e"/>
        <rect id="Rectangle_155" data-name="Rectangle 155" width="0.996" height="62.246" transform="translate(47.599 0)" fill="#1d1e1e"/>
        <rect id="Rectangle_29" data-name="Rectangle 29" width="0.996" height="62.246" transform="translate(13.599 0)" fill="#1d1e1e"/>
        <rect id="Rectangle_144" data-name="Rectangle 144" width="0.996" height="62.246" transform="translate(37.599 0)" fill="#1d1e1e"/>
        <rect id="Rectangle_156" data-name="Rectangle 156" width="0.996" height="62.246" transform="translate(61.599 0)" fill="#1d1e1e"/>
        <rect id="Rectangle_36" data-name="Rectangle 36" width="0.996" height="62.246" transform="translate(21.599 0)" fill="#1d1e1e"/>
        <rect id="Rectangle_145" data-name="Rectangle 145" width="0.996" height="62.246" transform="translate(45.599 0)" fill="#1d1e1e"/>
        <rect id="Rectangle_157" data-name="Rectangle 157" width="0.996" height="62.246" transform="translate(69.599 0)" fill="#1d1e1e"/>
        <rect id="Rectangle_30" data-name="Rectangle 30" width="0.996" height="62.246" transform="translate(9.599 0)" fill="#1d1e1e"/>
        <rect id="Rectangle_146" data-name="Rectangle 146" width="0.996" height="62.246" transform="translate(33.599 0)" fill="#1d1e1e"/>
        <rect id="Rectangle_158" data-name="Rectangle 158" width="0.996" height="62.246" transform="translate(57.599 0)" fill="#1d1e1e"/>
        <rect id="Rectangle_38" data-name="Rectangle 38" width="0.996" height="62.246" transform="translate(17.599 0)" fill="#1d1e1e"/>
        <rect id="Rectangle_147" data-name="Rectangle 147" width="0.996" height="62.246" transform="translate(41.599 0)" fill="#1d1e1e"/>
        <rect id="Rectangle_159" data-name="Rectangle 159" width="0.996" height="62.246" transform="translate(65.599 0)" fill="#1d1e1e"/>
        <rect id="Rectangle_32" data-name="Rectangle 32" width="0.996" height="62.246" transform="translate(5.599 0)" fill="#1d1e1e"/>
        <rect id="Rectangle_148" data-name="Rectangle 148" width="0.996" height="62.246" transform="translate(29.599 0)" fill="#1d1e1e"/>
        <rect id="Rectangle_160" data-name="Rectangle 160" width="0.996" height="62.246" transform="translate(53.599 0)" fill="#1d1e1e"/>
        <rect id="Rectangle_34" data-name="Rectangle 34" width="0.996" height="62.246" transform="translate(1.599 0)" fill="#1d1e1e"/>
        <rect id="Rectangle_149" data-name="Rectangle 149" width="0.996" height="62.246" transform="translate(25.599 0)" fill="#1d1e1e"/>
        <rect id="Rectangle_161" data-name="Rectangle 161" width="0.996" height="62.246" transform="translate(49.599 0)" fill="#1d1e1e"/>
      </g>
    </g>
  </g>
</svg>
