<svg xmlns="http://www.w3.org/2000/svg" xmlns:xlink="http://www.w3.org/1999/xlink" width="56" height="56" viewBox="0 0 56 56">
  <defs>
    <clipPath id="clip-path">
      <rect id="Rectangle_328" data-name="Rectangle 328" width="56" height="56" transform="translate(501 4440)" fill="#e7d1a2"/>
    </clipPath>
  </defs>
  <g id="Mask_Group_228" data-name="Mask Group 228" transform="translate(-501 -4440)" clip-path="url(#clip-path)">
    <g id="surface1" transform="translate(495.401 4434.4)">
      <path id="Path_8430" data-name="Path 8430" d="M36.476,5.6A8.475,8.475,0,0,0,28,14.066c0,5.447,9.494,14.208,13.574,17.73a2.79,2.79,0,0,0,3.653,0C49.306,28.274,58.8,19.512,58.8,14.066A8.475,8.475,0,0,0,50.324,5.6,9.206,9.206,0,0,0,43.4,8.816,9.206,9.206,0,0,0,36.476,5.6Zm21.164,28a3.932,3.932,0,0,0-2.8,1.159L42,47.6H30.8a1.4,1.4,0,1,1,0-2.8h7a4.2,4.2,0,1,0,0-8.4H24.237a11.192,11.192,0,0,0-7.919,3.281L5.6,50.4,16.8,61.6,22.4,56H42.481a5.6,5.6,0,0,0,3.959-1.641l14-14a3.959,3.959,0,0,0-2.8-6.759Z" fill="#e7d1a2"/>
    </g>
  </g>
</svg>
