<svg xmlns="http://www.w3.org/2000/svg" xmlns:xlink="http://www.w3.org/1999/xlink" width="56" height="56" viewBox="0 0 56 56">
  <defs>
    <clipPath id="clip-path">
      <rect id="Rectangle_328" data-name="Rectangle 328" width="56" height="56" transform="translate(501 4440)" fill="#e7d1a2"/>
    </clipPath>
  </defs>
  <g id="Mask_Group_226" data-name="Mask Group 226" transform="translate(-501 -4440)" clip-path="url(#clip-path)">
    <g id="surface1" transform="translate(495.4 4435.8)">
      <path id="Path_8428" data-name="Path 8428" d="M28,8.4a2.793,2.793,0,0,0-2,.809,2.825,2.825,0,0,0-.842,1.991H11.2a5.6,5.6,0,0,0-5.6,5.6V33.6a5.611,5.611,0,0,0,5.6,5.6H56a5.611,5.611,0,0,0,5.6-5.6V16.8A5.6,5.6,0,0,0,56,11.2H42.044A2.824,2.824,0,0,0,41.2,9.209a2.793,2.793,0,0,0-2-.809ZM33.6,28a2.8,2.8,0,1,1-2.8,2.8A2.805,2.805,0,0,1,33.6,28ZM5.6,43.236V50.4A5.6,5.6,0,0,0,11.2,56H56a5.6,5.6,0,0,0,5.6-5.6V43.236A10.991,10.991,0,0,1,56,44.8H11.2A10.991,10.991,0,0,1,5.6,43.236Z" fill="#e7d1a2"/>
    </g>
  </g>
</svg>
