<svg xmlns="http://www.w3.org/2000/svg" xmlns:xlink="http://www.w3.org/1999/xlink" width="56" height="56" viewBox="0 0 56 56">
  <defs>
    <clipPath id="clip-path">
      <rect id="Rectangle_328" data-name="Rectangle 328" width="56" height="56" transform="translate(501 4440)" fill="#e7d1a2"/>
    </clipPath>
  </defs>
  <g id="Mask_Group_223" data-name="Mask Group 223" transform="translate(-501 -4440)" clip-path="url(#clip-path)">
    <g id="surface1" transform="translate(495.609 4434.441)">
      <path id="Path_8425" data-name="Path 8425" d="M26.869,5.565a4.008,4.008,0,0,0-3.826,4.174A4.006,4.006,0,0,1,18.2,13.8a4.024,4.024,0,0,0-3.826,6.63,4,4,0,0,1-1.1,6.228A4.012,4.012,0,0,0,14.6,34.185a4.021,4.021,0,0,1,3.163,5.5A3.84,3.84,0,0,0,18,43.13l-4.848,8.348a2.783,2.783,0,0,0,2.413,4.174h4.913l1.946,4.283a2.794,2.794,0,0,0,4.924.282l6-10.011,6,10.011a2.794,2.794,0,0,0,4.924-.282l1.946-4.283H51.13a2.773,2.773,0,0,0,2.4-4.174l-4.783-8.261a3.878,3.878,0,0,0,.272-3.533,4.027,4.027,0,0,1,3.163-5.5,4.012,4.012,0,0,0,1.326-7.522,4,4,0,0,1-1.1-6.228A4.022,4.022,0,0,0,48.6,13.8a4.01,4.01,0,0,1-4.858-4.065A4.008,4.008,0,0,0,36.565,7.13a4.039,4.039,0,0,1-6.348,0A3.88,3.88,0,0,0,26.869,5.565ZM40.576,19.826a2.777,2.777,0,0,1,1.978,4.739l-8.7,8.7a2.769,2.769,0,0,1-3.815.1l-4.315-3.848a2.777,2.777,0,0,1-.109-4.033l.1-.1a2.792,2.792,0,0,1,3.706-.206L32,27.261l6.609-6.62A2.783,2.783,0,0,1,40.576,19.826ZM25.369,43.989A4.04,4.04,0,0,1,29.3,46.141l-4.1,6.815a5.5,5.5,0,0,0-4.728-2.87h-.087l3.185-5.478c.011-.011.033-.011.043-.022A3.959,3.959,0,0,1,25.369,43.989Zm16.054,0a3.887,3.887,0,0,1,1.663.565L46.3,50.086h-.087a5.526,5.526,0,0,0-4.728,2.87l-4.044-6.728A4.038,4.038,0,0,1,41.423,43.989Z" fill="#e7d1a2"/>
    </g>
  </g>
</svg>
