<svg xmlns="http://www.w3.org/2000/svg" xmlns:xlink="http://www.w3.org/1999/xlink" width="56" height="56" viewBox="0 0 56 56">
  <defs>
    <clipPath id="clip-path">
      <rect id="Rectangle_328" data-name="Rectangle 328" width="56" height="56" transform="translate(501 4440)" fill="#e7d1a2"/>
    </clipPath>
  </defs>
  <g id="Mask_Group_227" data-name="Mask Group 227" transform="translate(-501 -4440)" clip-path="url(#clip-path)">
    <g id="surface1" transform="translate(499.686 4434.902)">
      <path id="Path_8429" data-name="Path 8429" d="M29.3,5.1a2.6,2.6,0,0,0-1.364.408c-.408.259-10.1,6.522-10.1,18.869a57.237,57.237,0,0,0,1.175,8.762h-.4a2.727,2.727,0,0,0-.5.05,15.134,15.134,0,0,0-5.178,2.33,12.5,12.5,0,0,0-5.3,10.366A2.554,2.554,0,0,0,10.2,48.432H48.432a2.554,2.554,0,0,0,2.549-2.549,12.5,12.5,0,0,0-5.3-10.366,15.134,15.134,0,0,0-5.178-2.33,2.749,2.749,0,0,0-.508-.05H39.59a57.865,57.865,0,0,0,1.195-8.872c0-12.367-9.718-18.531-10.116-18.789A2.713,2.713,0,0,0,29.3,5.1Zm.01,12.745a3.824,3.824,0,1,1-3.824,3.824A3.825,3.825,0,0,1,29.314,17.843Zm-10.3,20.393h1.016c.408,1.892.807,3.7,1.135,5.1H13.363a7.241,7.241,0,0,1,2.519-3.654A9.072,9.072,0,0,1,19.018,38.236Zm19.576,0H39.61a9.074,9.074,0,0,1,3.136,1.444,7.314,7.314,0,0,1,2.529,3.654H37.449C37.778,41.95,38.186,40.128,38.594,38.236ZM25.491,53.53c0,3.784,3.824,7.568,3.824,7.568s3.824-3.784,3.824-7.568Z" fill="#e7d1a2"/>
    </g>
  </g>
</svg>
