<svg xmlns="http://www.w3.org/2000/svg" xmlns:xlink="http://www.w3.org/1999/xlink" width="56" height="56" viewBox="0 0 56 56">
  <defs>
    <clipPath id="clip-path">
      <rect id="Rectangle_385" data-name="Rectangle 385" width="56" height="56" transform="translate(501 4440)" fill="#e7d1a2"/>
    </clipPath>
  </defs>
  <g id="Mask_Group_248" data-name="Mask Group 248" transform="translate(-501 -4440)" clip-path="url(#clip-path)">
    <g id="surface1" transform="translate(501 4441.167)">
      <path id="Path_13593" data-name="Path 13593" d="M28,0a2.333,2.333,0,1,0,2.333,2.333A2.338,2.338,0,0,0,28,0ZM9.853,7.52a2.333,2.333,0,1,0,2.333,2.333A2.338,2.338,0,0,0,9.853,7.52Zm36.294,0A2.333,2.333,0,1,0,48.48,9.853,2.338,2.338,0,0,0,46.147,7.52Zm-18.43,4.147A16.542,16.542,0,0,0,11.685,27.389,16.311,16.311,0,0,0,21,42.729v3.938a7,7,0,0,0,14,0V42.729a16.318,16.318,0,0,0-7.283-31.062Zm-25.384,14A2.333,2.333,0,1,0,4.667,28,2.338,2.338,0,0,0,2.333,25.667Zm51.333,0A2.333,2.333,0,1,0,56,28,2.338,2.338,0,0,0,53.667,25.667ZM9.853,43.814a2.333,2.333,0,1,0,2.333,2.333A2.338,2.338,0,0,0,9.853,43.814Zm36.294,0a2.333,2.333,0,1,0,2.333,2.333A2.338,2.338,0,0,0,46.147,43.814Z" fill="#e7d1a2"/>
    </g>
  </g>
</svg>
