<svg xmlns="http://www.w3.org/2000/svg" width="36" height="36" viewBox="0 0 36 36">
  <path id="Subtraction_5" data-name="Subtraction 5" d="M2574-1191h-16a10.011,10.011,0,0,1-10-10v-16a10.011,10.011,0,0,1,10-10h16a10.011,10.011,0,0,1,10,10v16A10.011,10.011,0,0,1,2574-1191Zm-8-27.519a6.661,6.661,0,0,0-6.654,6.654c0,3.766,4.139,9.278,5.918,11.473a.938.938,0,0,0,.735.354.939.939,0,0,0,.735-.354c1.779-2.2,5.918-7.71,5.918-11.473A6.661,6.661,0,0,0,2566-1218.519Zm0,9.03a2.379,2.379,0,0,1-2.376-2.376,2.379,2.379,0,0,1,2.376-2.376,2.379,2.379,0,0,1,2.376,2.376A2.379,2.379,0,0,1,2566-1209.489Z" transform="translate(-2548 1227)" fill="#2a1f0b"/>
</svg>
