<svg xmlns="http://www.w3.org/2000/svg" width="460.042" height="356.773" viewBox="0 0 460.042 356.773">
  <g id="Group_23101" data-name="Group 23101" transform="translate(-51.12 -257.152)">
    <ellipse id="Ellipse_10" data-name="Ellipse 10" cx="230.021" cy="132.805" rx="230.021" ry="132.805" transform="translate(51.12 348.316)" fill="#bcdbed"/>
    <ellipse id="Ellipse_11" data-name="Ellipse 11" cx="230.021" cy="132.805" rx="230.021" ry="132.805" transform="translate(51.121 314.916)" fill="#d5e9f4"/>
    <g id="Group_4443" data-name="Group 4443" transform="translate(-85.099 -2.888)">
      <path id="Path_10293" data-name="Path 10293" d="M388.244,292.279l12.28-7.09,14.941,8.626,91.124,5.144,8.909,52.612,14.941,8.627-12.28,7.09,3.244,19.156-55.086,31.8-55.086,31.8-83.169-48.019h0l-83.169-48.019,55.086-31.8,55.086-31.8Z" transform="translate(4.751 74.513)" fill="#a3d0e7" opacity="0.7" style="mix-blend-mode: multiply;isolation: isolate"/>
      <g id="Group_4442" data-name="Group 4442" transform="translate(243.29 260.039)">
        <g id="Group_4436" data-name="Group 4436">
          <g id="Group_4435" data-name="Group 4435" style="isolation: isolate">
            <g id="Group_4418" data-name="Group 4418" transform="translate(0 133.029)">
              <path id="Path_10294" data-name="Path 10294" d="M243.29,325.128l11.716-6.809,67.469-24.71-11.716,6.809Z" transform="translate(-243.29 -293.609)" fill="#774c0d"/>
            </g>
            <g id="Group_4419" data-name="Group 4419" transform="translate(0.361 30.64)">
              <path id="Path_10295" data-name="Path 10295" d="M243.381,274.58l11.716-6.809L322.206,370.16l-11.716,6.808Z" transform="translate(-243.381 -267.771)" fill="#935710"/>
            </g>
            <g id="Group_4420" data-name="Group 4420" transform="translate(0 37.449)">
              <path id="Path_10296" data-name="Path 10296" d="M243.651,269.49,310.76,371.878l-67.47,24.71.18-63.56Z" transform="translate(-243.29 -269.49)" fill="#ea9230"/>
            </g>
            <g id="Group_4421" data-name="Group 4421" transform="translate(67.47 133.029)">
              <path id="Path_10297" data-name="Path 10297" d="M260.317,300.418l11.716-6.809,16.16,24.681L276.476,325.1Z" transform="translate(-260.317 -293.609)" fill="#935f10"/>
            </g>
            <g id="Group_4422" data-name="Group 4422" transform="translate(83.629 151.739)">
              <path id="Path_10298" data-name="Path 10298" d="M264.394,311.11,276.11,304.3l16.247-5.971-11.716,6.809Z" transform="translate(-264.394 -298.331)" fill="#774c0d"/>
            </g>
            <g id="Group_4423" data-name="Group 4423" transform="translate(99.876 151.739)">
              <path id="Path_10299" data-name="Path 10299" d="M268.494,305.139l11.716-6.809L347.32,400.74,335.6,407.549Z" transform="translate(-268.494 -298.331)" fill="#935f10"/>
            </g>
            <g id="Group_4424" data-name="Group 4424" transform="translate(0 139.838)">
              <path id="Path_10300" data-name="Path 10300" d="M343.166,314.037l67.109,102.409-83.492-48.2-83.493-48.2,67.47-24.71,16.16,24.68Z" transform="translate(-243.29 -295.327)" fill="#f3c087"/>
            </g>
            <g id="Group_4425" data-name="Group 4425" transform="translate(0.361 30.64)">
              <path id="Path_10301" data-name="Path 10301" d="M243.381,274.58l11.716-6.809,83.493,48.2-11.716,6.809Z" transform="translate(-243.381 -267.771)" fill="#836100"/>
            </g>
            <g id="Group_4426" data-name="Group 4426" transform="translate(166.985 190.589)">
              <path id="Path_10302" data-name="Path 10302" d="M285.61,314.943l11.716-6.808-.18,63.56L285.429,378.5Z" transform="translate(-285.429 -308.134)" fill="#c77414"/>
            </g>
            <g id="Group_4427" data-name="Group 4427" transform="translate(0.361)">
              <path id="Path_10303" data-name="Path 10303" d="M243.381,297.488l11.716-6.809,83.716-30.64L327.1,266.848Z" transform="translate(-243.381 -260.039)" fill="#c77414"/>
            </g>
            <g id="Group_4428" data-name="Group 4428" transform="translate(167.165 127.049)">
              <path id="Path_10304" data-name="Path 10304" d="M285.655,298.909l11.716-6.809-.18,63.539-11.716,6.808Z" transform="translate(-285.475 -292.1)" fill="#c77414"/>
            </g>
            <g id="Group_4429" data-name="Group 4429" transform="translate(99.876 127.049)">
              <path id="Path_10305" data-name="Path 10305" d="M268.494,323.6l11.716-6.809L347.68,292.1l-11.716,6.809Z" transform="translate(-268.494 -292.1)" fill="#77460d"/>
            </g>
            <g id="Group_4430" data-name="Group 4430" transform="translate(0.361 37.449)">
              <path id="Path_10306" data-name="Path 10306" d="M410.366,365.9,342.9,390.588l-16.247,5.971-16.16-24.68L243.381,269.49l83.492,48.2Z" transform="translate(-243.381 -269.49)" fill="#f3c087"/>
            </g>
            <g id="Group_4431" data-name="Group 4431" transform="translate(99.876 133.858)">
              <path id="Path_10307" data-name="Path 10307" d="M268.494,318.508l67.469-24.69-.18,63.539-.18,63.56Z" transform="translate(-268.494 -293.818)" fill="#ea9230"/>
            </g>
            <g id="Group_4432" data-name="Group 4432" transform="translate(83.853 78.845)">
              <path id="Path_10308" data-name="Path 10308" d="M264.451,286.744l11.716-6.809,83.492,48.2-11.716,6.809Z" transform="translate(-264.451 -279.936)" fill="#836100"/>
            </g>
            <g id="Group_4433" data-name="Group 4433" transform="translate(84.076)">
              <path id="Path_10309" data-name="Path 10309" d="M264.507,266.848l11.716-6.809,83.269,127.049L347.776,393.9Z" transform="translate(-264.507 -260.039)" fill="#ea9230"/>
            </g>
            <g id="Group_4434" data-name="Group 4434" transform="translate(0.361 6.809)">
              <path id="Path_10310" data-name="Path 10310" d="M327.1,261.757l83.269,127.049-83.492-48.2-83.492-48.2Z" transform="translate(-243.381 -261.757)" fill="#f3c087"/>
            </g>
          </g>
        </g>
        <g id="Group_4441" data-name="Group 4441" transform="translate(18.549 14.411)">
          <g id="Group_4440" data-name="Group 4440" style="isolation: isolate">
            <g id="Group_4437" data-name="Group 4437" transform="translate(130.439 75.309)">
              <path id="Path_10311" data-name="Path 10311" d="M281.026,284.95l3.905-2.269-.138,48.7-3.905,2.269Z" transform="translate(-280.888 -282.68)" fill="#9eb1bf"/>
            </g>
            <g id="Group_4438" data-name="Group 4438" transform="translate(0.138)">
              <path id="Path_10312" data-name="Path 10312" d="M248.006,265.946l3.905-2.27,130.439,75.309-3.905,2.269Z" transform="translate(-248.006 -263.676)" fill="#d1dce6"/>
            </g>
            <g id="Group_4439" data-name="Group 4439" transform="translate(0 2.27)">
              <path id="Path_10313" data-name="Path 10313" d="M378.549,339.557l-.138,48.7-49.147,17.963-16.247,5.971-16.16-24.681L247.971,312.95l.138-48.7Z" transform="translate(-247.971 -264.249)" fill="#e5e3e4"/>
            </g>
          </g>
        </g>
      </g>
    </g>
  </g>
</svg>
