<svg xmlns="http://www.w3.org/2000/svg" xmlns:xlink="http://www.w3.org/1999/xlink" width="214" height="119" viewBox="0 0 214 119">
  <defs>
    <clipPath id="clip-path">
      <rect id="Rectangle_326" data-name="Rectangle 326" width="119" height="119" transform="translate(1428 4349)" fill="#dfc58a" stroke="#707070" stroke-width="1"/>
    </clipPath>
  </defs>
  <g id="Group_5691" data-name="Group 5691" transform="translate(-1333 -4378)">
    <g id="Mask_Group_221" data-name="Mask Group 221" transform="translate(0 29)" clip-path="url(#clip-path)">
      <g id="surface1" transform="translate(1398.25 4304.375)">
        <path id="Path_8423" data-name="Path 8423" d="M96.688,163.625a7.3,7.3,0,0,1-3.835-1.075l-.2-.117a7.411,7.411,0,0,1-2.789-9.762,74.282,74.282,0,0,0,5.578-19.233,43.652,43.652,0,0,1-6.188.436A44.625,44.625,0,1,1,133.875,89.25c0,47.152-31.319,71.789-32.655,72.835A7.492,7.492,0,0,1,96.688,163.625Z" fill="#dfc58a"/>
      </g>
    </g>
    <g id="Mask_Group_222" data-name="Mask Group 222" transform="translate(-95 29)" clip-path="url(#clip-path)">
      <g id="surface1-2" data-name="surface1" transform="translate(1398.25 4304.375)">
        <path id="Path_8424" data-name="Path 8424" d="M96.688,163.625a7.3,7.3,0,0,1-3.835-1.075l-.2-.117a7.411,7.411,0,0,1-2.789-9.762,74.282,74.282,0,0,0,5.578-19.233,43.652,43.652,0,0,1-6.188.436A44.625,44.625,0,1,1,133.875,89.25c0,47.152-31.319,71.789-32.655,72.835A7.492,7.492,0,0,1,96.688,163.625Z" fill="#dfc58a"/>
      </g>
    </g>
  </g>
</svg>
