<svg xmlns="http://www.w3.org/2000/svg" xmlns:xlink="http://www.w3.org/1999/xlink" width="460.048" height="494.291" viewBox="0 0 460.048 494.291">
  <defs>
    <linearGradient id="linear-gradient" y1="0.5" x2="1" y2="0.5" gradientUnits="objectBoundingBox">
      <stop offset="0" stop-color="#f7f5f9"/>
      <stop offset="1" stop-color="#faf7fb"/>
    </linearGradient>
    <linearGradient id="linear-gradient-8" x1="0.584" y1="0.907" x2="0.29" y2="0.159" gradientUnits="objectBoundingBox">
      <stop offset="0" stop-color="#352835"/>
      <stop offset="0.281" stop-color="#302430"/>
      <stop offset="1" stop-color="#281e28"/>
    </linearGradient>
  </defs>
  <g id="Group_3927" data-name="Group 3927" transform="translate(-51.12 -119.634)">
    <ellipse id="Ellipse_10" data-name="Ellipse 10" cx="230.021" cy="132.805" rx="230.021" ry="132.805" transform="translate(51.12 348.316)" fill="#bcdbed"/>
    <ellipse id="Ellipse_11" data-name="Ellipse 11" cx="230.021" cy="132.805" rx="230.021" ry="132.805" transform="translate(51.127 314.916)" fill="#d5e9f4"/>
    <g id="_7" data-name="7" transform="translate(122.226 -106.492)">
      <g id="Group_4366" data-name="Group 4366" transform="translate(22.901 226.126)">
        <path id="Path_10114" data-name="Path 10114" d="M246.738,306.948l-9.712-5.607H202.484l-9.147,5.116H179.891L22.9,397.1l21.055,12.156H69.017l-.435-10.887,170.77-91.415Z" transform="translate(-22.901 -62.567)" fill="#a3d0e7"/>
        <g id="Group_4365" data-name="Group 4365" transform="translate(25.662)">
          <g id="Axonometric_Cube" data-name="Axonometric Cube" transform="translate(0 329.473)">
            <path id="Cube_face_-_left" data-name="Cube face - left" d="M64.424,354.453,30.985,335.147v-3.781l33.439,19.306Z" transform="translate(-30.985 -326.749)" fill="#bfb8c7"/>
            <path id="Cube_face_-_right" data-name="Cube face - right" d="M49.515,339.774l-8,4.617V340.61l8-4.616Z" transform="translate(-8.079 -316.687)" fill="#dfdae0"/>
            <path id="Cube_face_-_top" data-name="Cube face - top" d="M64.424,353.834,30.985,334.529l8-4.617L72.42,349.218Z" transform="translate(-30.985 -329.912)" fill="url(#linear-gradient)"/>
          </g>
          <g id="Axonometric_Cube-2" data-name="Axonometric Cube" transform="translate(177.236 227.146)">
            <path id="Cube_face_-_left-2" data-name="Cube face - left" d="M120.254,322.219,86.815,302.913v-3.781l33.439,19.306Z" transform="translate(-86.815 -294.516)" fill="#bfb8c7"/>
            <path id="Cube_face_-_right-2" data-name="Cube face - right" d="M105.345,307.54l-8,4.617v-3.781l8-4.616Z" transform="translate(-63.909 -284.454)" fill="#dfdae0"/>
            <path id="Cube_face_-_top-2" data-name="Cube face - top" d="M120.254,321.6,86.815,302.295l8-4.617,33.439,19.306Z" transform="translate(-86.815 -297.678)" fill="url(#linear-gradient)"/>
          </g>
          <g id="Axonometric_Cube-3" data-name="Axonometric Cube" transform="translate(193.348 83.144)">
            <path id="Cube_face_-_left-3" data-name="Cube face - left" d="M98.233,409.386l-6.342-3.662V252.894l6.342,3.662Z" transform="translate(-91.89 -251.063)" fill="#bfb8c7"/>
            <path id="Cube_face_-_right-3" data-name="Cube face - right" d="M97.059,406.3l-3.171,1.831V255.3l3.171-1.831Z" transform="translate(-87.546 -249.809)" fill="#dfdae0"/>
            <path id="Cube_face_-_top-3" data-name="Cube face - top" d="M98.233,257.81l-6.342-3.662,3.171-1.831,6.342,3.662Z" transform="translate(-91.89 -252.317)" fill="url(#linear-gradient)"/>
          </g>
          <g id="Group_4362" data-name="Group 4362" transform="translate(18.892)">
            <g id="Group_4361" data-name="Group 4361">
              <path id="Path_10115" data-name="Path 10115" d="M217.754,229.672,44.675,331.29l-7.739-4.469,174.4-100.694Z" transform="translate(-36.936 -226.126)" fill="url(#linear-gradient)"/>
              <path id="Path_10116" data-name="Path 10116" d="M213.362,363.6,38.956,464.291V327.937L213.362,227.243Z" transform="translate(-32.544 -223.697)" fill="#dfdae0"/>
              <path id="Path_10117" data-name="Path 10117" d="M43.316,397.87l-6.342-3.661V257.854l6.342,3.662Z" transform="translate(-36.854 -157.132)" fill="#bfb8c7"/>
            </g>
            <path id="Path_10118" data-name="Path 10118" d="M207.094,355.663l-166.86,96.5V325.584l166.86-96.5Z" transform="translate(-29.763 -219.701)" fill="#f8f8f8"/>
          </g>
          <g id="Group_4364" data-name="Group 4364" transform="translate(57.539 155.873)">
            <g id="Group_4363" data-name="Group 4363">
              <path id="Path_10119" data-name="Path 10119" d="M161.2,278.434,50.751,342.2v-2.258l31.234-20.084L161.2,276.176Z" transform="translate(-45.541 -273.164)" fill="#dfdae0"/>
              <path id="Path_10120" data-name="Path 10120" d="M164.778,278.242,111.971,308.73l-57.64,33.279-5.221-3.015,110.447-63.768Z" transform="translate(-49.11 -275.227)" fill="url(#linear-gradient)"/>
              <path id="Path_10121" data-name="Path 10121" d="M164.778,278.242,111.971,308.73l-57.64,33.279-5.221-3.015,110.447-63.768Z" transform="translate(-49.11 -275.227)" fill="url(#linear-gradient)"/>
              <path id="Path_10122" data-name="Path 10122" d="M54.331,298.329l-5.221-3.015v2.268l5.21,3Z" transform="translate(-49.11 -231.547)" fill="#bfb8c7"/>
            </g>
          </g>
          <g id="Axonometric_Cube-4" data-name="Axonometric Cube" transform="translate(15.906 185.59)">
            <path id="Cube_face_-_left-4" data-name="Cube face - left" d="M42.338,441.657,36,437.995V285.165l6.342,3.662Z" transform="translate(-35.995 -283.334)" fill="#bfb8c7"/>
            <path id="Cube_face_-_right-4" data-name="Cube face - right" d="M41.164,438.572,37.993,440.4V287.572l3.171-1.831Z" transform="translate(-31.651 -282.08)" fill="#dfdae0"/>
            <path id="Cube_face_-_top-4" data-name="Cube face - top" d="M42.338,290.08,36,286.419l3.171-1.831,6.342,3.661Z" transform="translate(-35.995 -284.588)" fill="url(#linear-gradient)"/>
          </g>
        </g>
      </g>
      <g id="Group_4392" data-name="Group 4392" transform="translate(91.63 251.76)">
        <path id="Path_10123" data-name="Path 10123" d="M78.439,326.022v-.749l14.9-8.606v.749Zm-3.962,2.286v-.749l2.762-1.6v.752Zm-17.4,10.047V337.6l16.2-9.352V329ZM45.49,345.047v-.752l10.39-6v.752ZM85.518,316.9l14.9-8.606v.749l-14.9,8.609Zm16.1-9.3,6.321-3.651v.752l-6.321,3.651ZM81.556,319.934v-.749l2.762-1.594v.749Zm-17.4,10.047v-.752l16.2-9.352v.749ZM45.49,340.759v-.749l17.47-10.089v.752Zm98.856-61.234v-.749l8.774-5.067v.749Zm-11.939,6.892v-.749l10.74-6.2v.749Zm-7.286,4.21v-.752l6.089-3.514v.749Zm-11.809,6.819v-.752l10.613-6.13v.756ZM102.48,303.7v-.756l9.632-5.562v.752Zm-12.793,7.384v-.752l11.593-6.692v.749Zm-12.641,7.3v-.752l11.444-6.606v.752Zm-15.911,9.187v-.752l14.711-8.5v.752ZM45.49,336.6v-.752l14.447-8.34v.749Zm83.6-52.425v-.752l24.035-13.876v.752Zm-11.939,6.892v-.749l10.743-6.2v.752ZM104.28,298.5v-.752l11.67-6.74v.752Zm-6.228,3.594v-.749l5.028-2.9v.752Zm-7.521,4.343v-.752l6.321-3.648v.749Zm-16.1,9.3v-.752l14.9-8.606v.752Zm-3.962,2.286v-.752l2.762-1.594v.752Zm-17.4,10.044v-.749l16.2-9.355v.752Zm-7.578,4.378v-.752l6.381-3.682v.749Z" transform="translate(-42.509 -157.339)" fill="#748e9d"/>
        <g id="Group_4380" data-name="Group 4380" transform="translate(0 81.138)">
          <path id="Path_10124" data-name="Path 10124" d="M179.735,263.782a.639.639,0,0,0-.311.492v1.692l-21.149,12.209v-1.692c0-.172-.14-.232-.311-.13a.638.638,0,0,0-.314.492v1.689L136.5,290.747v-1.692c0-.175-.14-.232-.311-.133a.649.649,0,0,0-.314.492v1.692l-21.146,12.209v-1.692c0-.171-.14-.232-.314-.13a.643.643,0,0,0-.311.492v1.692L92.959,315.886v-1.692c0-.172-.14-.232-.311-.133a.653.653,0,0,0-.311.492v1.692L71.188,328.454v-1.692c0-.171-.14-.229-.311-.13a.648.648,0,0,0-.311.492v1.692l-18.2,10.5-2.952,1.7v-15.4l1.9-1.092a.653.653,0,0,0,.311-.492c0-.171-.14-.232-.311-.133l-1.9,1.1V309.6l1.9-1.1a.648.648,0,0,0,.311-.492c0-.171-.14-.232-.311-.13l-1.9,1.092v-15.4l1.9-1.1a.643.643,0,0,0,.311-.492c0-.171-.14-.232-.311-.13l-1.9,1.092v-15.4l1.9-1.1a.648.648,0,0,0,.311-.492c0-.172-.14-.232-.311-.13l-1.9,1.092v-15.4l1.9-1.1a.643.643,0,0,0,.311-.489c0-.175-.14-.232-.311-.133l-4.327,2.5a.643.643,0,0,0-.311.492c0,.171.14.232.311.13l1.809-1.044v15.4l-1.809,1.041a.653.653,0,0,0-.311.492c0,.175.14.232.311.133l1.809-1.044v15.4l-1.809,1.041a.653.653,0,0,0-.311.5c0,.171.14.229.311.13l1.809-1.044v15.4l-1.809,1.044a.653.653,0,0,0-.311.492c0,.175.14.232.311.133l1.809-1.044v15.4L46.985,326.4a.648.648,0,0,0-.311.492c0,.171.14.232.311.133l1.809-1.044V341.7c0,.175.14.232.311.133l3.263-1.886,18.2-10.5v1.787c0,.171.14.232.311.133a.653.653,0,0,0,.311-.492V329.08L92.337,316.87v1.787c0,.171.14.232.311.13a.643.643,0,0,0,.311-.492v-1.787L114.108,304.3v1.787c0,.172.14.232.311.133a.649.649,0,0,0,.314-.5V303.94l21.146-12.209v1.784c0,.175.14.232.314.133a.648.648,0,0,0,.311-.492v-1.787L157.65,279.16v1.787c0,.172.14.232.314.133a.653.653,0,0,0,.311-.5V278.8l21.149-12.212v1.787c0,.175.137.232.311.133a.648.648,0,0,0,.311-.492v-4.1C180.046,263.741,179.907,263.684,179.735,263.782Z" transform="translate(-39.934 -259.76)" fill="#748e9d"/>
          <g id="Group_4379" data-name="Group 4379" transform="translate(0 2.445)">
            <g id="Group_4368" data-name="Group 4368" transform="translate(2.222 80.413)">
              <g id="Group_4367" data-name="Group 4367">
                <path id="Path_10125" data-name="Path 10125" d="M47.013,289.119a1.782,1.782,0,0,1-.111.552,1.721,1.721,0,0,1-.263.479,1.555,1.555,0,0,1-.5.448.769.769,0,0,1-.514.143.357.357,0,0,1-.257-.181.828.828,0,0,1-.111-.425v-2.648a1.744,1.744,0,0,1,.111-.546,1.721,1.721,0,0,1,.257-.486,1.677,1.677,0,0,1,.514-.448.8.8,0,0,1,.5-.143.375.375,0,0,1,.263.187.821.821,0,0,1,.111.419Zm-.66-2.267c0-.124-.025-.194-.086-.232-.251.1-.3.213-.33.308a.561.561,0,0,0-.025.178v2.648c0,.127.032.194.092.229.244-.092.3-.2.324-.3a.523.523,0,0,0,.025-.178Z" transform="translate(-45.251 -285.86)" fill="#748e9d"/>
              </g>
            </g>
            <g id="Group_4370" data-name="Group 4370" transform="translate(2.302 64.101)">
              <g id="Group_4369" data-name="Group 4369">
                <path id="Path_10126" data-name="Path 10126" d="M46.339,283.42c0-.19-.067-.292-.206-.213a.591.591,0,0,0-.184.229.723.723,0,0,0-.073.251l-.556.321v-2.365l1.594-.921v.654l-1.025.594v.933a1.978,1.978,0,0,1,.244-.273.451.451,0,0,1,.133-.1c.343-.2.527-.108.625.051a.95.95,0,0,1,.108.454v1a2.218,2.218,0,0,1-.127.816,1.636,1.636,0,0,1-.733.857c-.41.235-.619.165-.733-.035a1.773,1.773,0,0,1-.13-.825l.66-.381v.178a1.354,1.354,0,0,0,.044.448c.029.073.079.086.159.041a.367.367,0,0,0,.152-.216,1.9,1.9,0,0,0,.048-.5Z" transform="translate(-45.276 -280.722)" fill="#748e9d"/>
              </g>
            </g>
            <g id="Group_4372" data-name="Group 4372" transform="translate(0.673 48.366)">
              <g id="Group_4371" data-name="Group 4371">
                <path id="Path_10127" data-name="Path 10127" d="M44.763,277.678v-.422a2.327,2.327,0,0,0,.559-.638,2.505,2.505,0,0,0,.146-.318l.4-.232v4.5l-.66.381v-3.521Z" transform="translate(-44.763 -275.108)" fill="#748e9d"/>
                <path id="Path_10128" data-name="Path 10128" d="M47.013,279.021a1.831,1.831,0,0,1-.375,1.035,1.556,1.556,0,0,1-.5.448.769.769,0,0,1-.514.143.357.357,0,0,1-.257-.181.837.837,0,0,1-.111-.425v-2.648a1.743,1.743,0,0,1,.111-.546,1.7,1.7,0,0,1,.771-.936.813.813,0,0,1,.5-.14.381.381,0,0,1,.263.184.843.843,0,0,1,.111.422Zm-.66-2.263c0-.124-.025-.194-.086-.232-.251.1-.3.213-.33.3a.593.593,0,0,0-.025.181v2.648c0,.127.032.2.092.229.244-.092.3-.2.324-.3a.523.523,0,0,0,.025-.178Z" transform="translate(-43.702 -275.765)" fill="#748e9d"/>
              </g>
            </g>
            <g id="Group_4374" data-name="Group 4374" transform="translate(0.737 32.05)">
              <g id="Group_4373" data-name="Group 4373">
                <path id="Path_10129" data-name="Path 10129" d="M44.783,272.615V272.2a2.368,2.368,0,0,0,.556-.641,1.991,1.991,0,0,0,.146-.318l.4-.229v4.5l-.663.381v-3.524Z" transform="translate(-44.783 -269.793)" fill="#748e9d"/>
                <path id="Path_10130" data-name="Path 10130" d="M46.339,273.324c0-.191-.067-.292-.206-.21a.568.568,0,0,0-.184.229.711.711,0,0,0-.073.248l-.556.324v-2.368l1.594-.921v.654l-1.025.594v.936a1.833,1.833,0,0,1,.244-.276.388.388,0,0,1,.133-.1c.343-.2.527-.108.625.048a.954.954,0,0,1,.108.457v1a2.212,2.212,0,0,1-.127.813,1.635,1.635,0,0,1-.733.857c-.41.238-.619.168-.733-.035a1.76,1.76,0,0,1-.13-.822l.66-.381v.175a1.342,1.342,0,0,0,.044.448c.029.073.079.089.159.041a.357.357,0,0,0,.152-.216,1.889,1.889,0,0,0,.048-.5Z" transform="translate(-43.711 -270.626)" fill="#748e9d"/>
              </g>
            </g>
            <g id="Group_4376" data-name="Group 4376" transform="translate(0 16.315)">
              <g id="Group_4375" data-name="Group 4375">
                <path id="Path_10131" data-name="Path 10131" d="M44.57,268.205v-.311a2.2,2.2,0,0,1,.171-.9,1.651,1.651,0,0,1,.708-.765c.337-.194.562-.2.7-.076a.96.96,0,0,1,.184.686,6.137,6.137,0,0,1-.387,1.733c-.219.641-.476,1.248-.648,1.635l1.044-.6v.654l-1.79,1.035v-.654c.2-.429.384-.854.549-1.267a10.528,10.528,0,0,0,.381-1.1,4.535,4.535,0,0,0,.19-1,1.143,1.143,0,0,0-.038-.346c-.032-.086-.086-.133-.184-.076a.425.425,0,0,0-.178.267,1.827,1.827,0,0,0-.041.41v.311Z" transform="translate(-44.551 -264.806)" fill="#748e9d"/>
                <path id="Path_10132" data-name="Path 10132" d="M47.013,268.925a1.831,1.831,0,0,1-.375,1.035,1.553,1.553,0,0,1-.5.448.769.769,0,0,1-.514.143.357.357,0,0,1-.257-.181.837.837,0,0,1-.111-.425V267.3a1.743,1.743,0,0,1,.111-.546,1.719,1.719,0,0,1,.257-.486,1.636,1.636,0,0,1,.514-.448.78.78,0,0,1,.5-.143.381.381,0,0,1,.263.184.842.842,0,0,1,.111.422Zm-.66-2.263c0-.124-.025-.194-.086-.232-.251.1-.3.213-.33.3a.58.58,0,0,0-.025.181v2.648c0,.127.032.194.092.229.244-.092.3-.2.324-.3a.531.531,0,0,0,.025-.181Z" transform="translate(-43.029 -265.669)" fill="#748e9d"/>
              </g>
            </g>
            <g id="Group_4378" data-name="Group 4378" transform="translate(0.06)">
              <g id="Group_4377" data-name="Group 4377">
                <path id="Path_10133" data-name="Path 10133" d="M44.589,263.146v-.311a2.237,2.237,0,0,1,.171-.9,1.645,1.645,0,0,1,.711-.765c.333-.194.562-.2.7-.079a.969.969,0,0,1,.184.689,6.141,6.141,0,0,1-.384,1.733c-.222.641-.479,1.248-.651,1.632l1.048-.6v.657l-1.794,1.032v-.654c.2-.429.387-.851.552-1.263A11.356,11.356,0,0,0,45.5,263.2a4.364,4.364,0,0,0,.19-1,1.131,1.131,0,0,0-.038-.346c-.029-.086-.086-.133-.181-.079a.412.412,0,0,0-.178.27,1.653,1.653,0,0,0-.044.409v.311Z" transform="translate(-44.57 -259.492)" fill="#748e9d"/>
                <path id="Path_10134" data-name="Path 10134" d="M46.339,263.228c0-.19-.067-.292-.206-.21a.568.568,0,0,0-.184.229.705.705,0,0,0-.073.251l-.556.321v-2.368l1.594-.921v.654l-1.025.594v.936a1.838,1.838,0,0,1,.244-.276.386.386,0,0,1,.133-.1c.343-.2.527-.108.625.048a.954.954,0,0,1,.108.457v1a2.212,2.212,0,0,1-.127.813,1.636,1.636,0,0,1-.733.857c-.41.238-.619.168-.733-.035a1.76,1.76,0,0,1-.13-.822l.66-.384v.178a1.341,1.341,0,0,0,.044.448c.029.073.079.089.159.041a.357.357,0,0,0,.152-.216,1.888,1.888,0,0,0,.048-.5Z" transform="translate(-43.035 -260.53)" fill="#748e9d"/>
              </g>
            </g>
          </g>
        </g>
        <g id="Group_4382" data-name="Group 4382" transform="translate(13.403)">
          <g id="Group_4381" data-name="Group 4381" transform="translate(0.644 11.846)">
            <path id="Path_10135" data-name="Path 10135" d="M53.8,286.61,48.976,289.4v-6.685l4.825-2.786Z" transform="translate(-48.976 -146.617)" fill="#748e9d"/>
            <path id="Path_10136" data-name="Path 10136" d="M56.042,288.481l-4.825,2.786v-11.3l4.825-2.785Z" transform="translate(-44.103 -152.595)" fill="#748e9d"/>
            <path id="Path_10137" data-name="Path 10137" d="M58.282,290.871l-4.824,2.786V276.974l4.824-2.786Z" transform="translate(-39.23 -159.092)" fill="#748e9d"/>
            <path id="Path_10138" data-name="Path 10138" d="M60.523,293.731,55.7,296.516V273.77l4.825-2.785Z" transform="translate(-34.357 -166.059)" fill="#748e9d"/>
            <path id="Path_10139" data-name="Path 10139" d="M62.764,296.653l-4.825,2.786v-28.9l4.825-2.785Z" transform="translate(-29.484 -173.089)" fill="#748e9d"/>
            <path id="Path_10140" data-name="Path 10140" d="M65.005,293.608l-4.824,2.786V270.049l4.824-2.785Z" transform="translate(-24.611 -174.151)" fill="#748e9d"/>
            <path id="Path_10141" data-name="Path 10141" d="M67.246,295.837l-4.825,2.786V267.135l4.825-2.785Z" transform="translate(-19.738 -180.487)" fill="#f2a532"/>
            <path id="Path_10142" data-name="Path 10142" d="M69.487,296.282l-4.825,2.786V265.042l4.825-2.786Z" transform="translate(-14.865 -185.04)" fill="#f2a532"/>
            <path id="Path_10143" data-name="Path 10143" d="M71.728,292.671,66.9,295.456V264.814l4.824-2.786Z" transform="translate(-9.992 -185.535)" fill="#f2a532"/>
            <path id="Path_10144" data-name="Path 10144" d="M73.969,295.351l-4.825,2.786V261.693l4.825-2.786Z" transform="translate(-5.119 -192.322)" fill="#0094ef"/>
            <path id="Path_10145" data-name="Path 10145" d="M76.21,296.264l-4.825,2.785V259.384L76.21,256.6Z" transform="translate(-0.246 -197.343)" fill="#0094ef"/>
            <path id="Path_10146" data-name="Path 10146" d="M78.451,300.379l-4.825,2.785V255.6l4.825-2.785Z" transform="translate(4.627 -205.566)" fill="#0094ef"/>
            <path id="Path_10147" data-name="Path 10147" d="M80.692,295.553l-4.825,2.785V255.933l4.825-2.786Z" transform="translate(9.5 -204.847)" fill="#ea4040"/>
            <path id="Path_10148" data-name="Path 10148" d="M82.933,294.922l-4.825,2.785V254.335l4.825-2.785Z" transform="translate(14.373 -208.323)" fill="#ea4040"/>
            <path id="Path_10149" data-name="Path 10149" d="M85.174,296.719,80.349,299.5V251.62l4.825-2.786Z" transform="translate(19.246 -214.227)" fill="#ea4040"/>
            <path id="Path_10150" data-name="Path 10150" d="M87.415,298.405l-4.825,2.785V248.955l4.825-2.785Z" transform="translate(24.119 -220.02)" fill="#95cc09"/>
            <path id="Path_10151" data-name="Path 10151" d="M89.656,303.183l-4.825,2.785v-61.1l4.825-2.785Z" transform="translate(28.992 -228.905)" fill="#95cc09"/>
            <path id="Path_10152" data-name="Path 10152" d="M91.9,308.1l-4.825,2.785v-70.17l4.825-2.785Z" transform="translate(33.865 -237.933)" fill="#95cc09"/>
          </g>
          <path id="Path_10153" data-name="Path 10153" d="M175.18,234.2l-3.784,3.956,1.146.14-9.787,18.863-7.041,12.146-11.482,13.051-11.559,3.365a.891.891,0,0,0-.321.175l-8.489,6.835a1.087,1.087,0,0,0-.127.117L87.2,330.793l-9.454,7.416a1.378,1.378,0,0,0-.251.257L49.036,375.735c-.286.378-.349.816-.14.981a.465.465,0,0,0,.521-.035,1.285,1.285,0,0,0,.381-.346l28.342-37.12,9.39-7.368a1.683,1.683,0,0,0,.14-.127l36.545-37.952,8.26-6.651,11.657-3.39a1.125,1.125,0,0,0,.492-.343l11.816-13.428a1.564,1.564,0,0,0,.171-.238l7.146-12.33,9.841-18.965,1.222.146Z" transform="translate(-48.773 -234.201)" fill="#ea4040"/>
        </g>
        <g id="Group_4391" data-name="Group 4391" transform="translate(37.952 8.333)">
          <g id="Group_4384" data-name="Group 4384" transform="translate(0 91.24)">
            <g id="Group_4383" data-name="Group 4383">
              <path id="Path_10154" data-name="Path 10154" d="M61.252,266.726a4.209,4.209,0,0,0-1.032.676,8.442,8.442,0,0,0-1.962,2.625,7.246,7.246,0,0,0-.816,4.422,1.144,1.144,0,0,0,1.5,1,6.243,6.243,0,0,0,2.286-1.2,13.923,13.923,0,0,0,1.984-1.886,15.065,15.065,0,0,0,1.552-2.175,5.5,5.5,0,0,0,.952-2.194c.162-.749-.006-1.333-.549-1.482a11.41,11.41,0,0,0-3.267-.276,9.016,9.016,0,0,0-1.263.114.259.259,0,0,1-.3-.206.264.264,0,0,1,.194-.3,9.937,9.937,0,0,1,1.33-.2c.422-.038.933-.073,1.527-.076a6.846,6.846,0,0,1,2.041.229,1.578,1.578,0,0,1,1.013.959,2.64,2.64,0,0,1,.067,1.381,6.473,6.473,0,0,1-1.016,2.5,16.412,16.412,0,0,1-1.594,2.314,14.636,14.636,0,0,1-2.079,2.054,6.383,6.383,0,0,1-2.711,1.359,2.176,2.176,0,0,1-1.676-.311,2.25,2.25,0,0,1-.835-1.416,7.98,7.98,0,0,1,.984-4.965,8.11,8.11,0,0,1,2.273-2.74,4.588,4.588,0,0,1,1.19-.676.27.27,0,0,1,.365.152A.256.256,0,0,1,61.252,266.726Z" transform="translate(-56.506 -265.567)" fill="#564956"/>
            </g>
          </g>
          <g id="Group_4386" data-name="Group 4386" transform="translate(54.136 39.155)">
            <g id="Group_4385" data-name="Group 4385">
              <path id="Path_10155" data-name="Path 10155" d="M78.3,250.319a4.241,4.241,0,0,0-1.032.673,8.43,8.43,0,0,0-1.962,2.625,7.234,7.234,0,0,0-.816,4.425,1.144,1.144,0,0,0,1.5,1,6.2,6.2,0,0,0,2.286-1.2,13.928,13.928,0,0,0,1.984-1.886,15.027,15.027,0,0,0,1.552-2.171,5.517,5.517,0,0,0,.952-2.194c.162-.749-.01-1.336-.549-1.486a11.414,11.414,0,0,0-3.267-.276,9,9,0,0,0-1.263.114.255.255,0,0,1-.3-.2.258.258,0,0,1,.194-.3,9.347,9.347,0,0,1,1.33-.2c.422-.041.933-.073,1.527-.076a6.848,6.848,0,0,1,2.041.229,1.571,1.571,0,0,1,1.013.959,2.661,2.661,0,0,1,.067,1.378,6.435,6.435,0,0,1-1.016,2.5,16.238,16.238,0,0,1-1.594,2.314,14.633,14.633,0,0,1-2.079,2.054,6.383,6.383,0,0,1-2.711,1.359,2.163,2.163,0,0,1-1.676-.311,2.243,2.243,0,0,1-.835-1.413,7.975,7.975,0,0,1,.984-4.965,8.109,8.109,0,0,1,2.273-2.74,4.675,4.675,0,0,1,1.19-.679.272.272,0,0,1,.365.152A.264.264,0,0,1,78.3,250.319Z" transform="translate(-73.559 -249.16)" fill="#564956"/>
            </g>
          </g>
          <g id="Group_4388" data-name="Group 4388" transform="translate(89.706)">
            <g id="Group_4387" data-name="Group 4387">
              <path id="Path_10156" data-name="Path 10156" d="M89.51,237.985a4.213,4.213,0,0,0-1.035.673,8.528,8.528,0,0,0-1.962,2.625,7.245,7.245,0,0,0-.813,4.422,1.142,1.142,0,0,0,1.492,1,6.184,6.184,0,0,0,2.289-1.2,13.9,13.9,0,0,0,1.981-1.886,15.046,15.046,0,0,0,1.556-2.171,5.575,5.575,0,0,0,.952-2.2c.162-.746-.01-1.333-.549-1.483a11.435,11.435,0,0,0-3.27-.276,8.99,8.99,0,0,0-1.26.114.258.258,0,0,1-.108-.5,9.23,9.23,0,0,1,1.33-.2c.422-.041.933-.073,1.524-.076a6.84,6.84,0,0,1,2.044.225,1.582,1.582,0,0,1,1.013.962,2.661,2.661,0,0,1,.067,1.378,6.46,6.46,0,0,1-1.019,2.5,16.123,16.123,0,0,1-1.59,2.314,14.8,14.8,0,0,1-2.079,2.054,6.384,6.384,0,0,1-2.711,1.359,2.172,2.172,0,0,1-1.676-.311,2.237,2.237,0,0,1-.835-1.413,7.991,7.991,0,0,1,.981-4.965,8.162,8.162,0,0,1,2.273-2.743,4.692,4.692,0,0,1,1.194-.676.267.267,0,0,1,.362.152A.259.259,0,0,1,89.51,237.985Z" transform="translate(-84.764 -236.826)" fill="#564956"/>
            </g>
          </g>
          <g id="Group_4390" data-name="Group 4390" transform="translate(28.133 63.767)">
            <g id="Group_4389" data-name="Group 4389">
              <path id="Path_10157" data-name="Path 10157" d="M70.117,258.072a4.094,4.094,0,0,0-1.035.673,8.531,8.531,0,0,0-1.962,2.625,7.246,7.246,0,0,0-.813,4.422,1.141,1.141,0,0,0,1.492,1,6.23,6.23,0,0,0,2.289-1.2,13.74,13.74,0,0,0,1.981-1.886,15.049,15.049,0,0,0,1.556-2.171,5.576,5.576,0,0,0,.952-2.2c.162-.746-.01-1.333-.549-1.482a11.433,11.433,0,0,0-3.27-.276,8.994,8.994,0,0,0-1.26.114.262.262,0,0,1-.3-.206.267.267,0,0,1,.2-.3,9.84,9.84,0,0,1,1.33-.2c.419-.038.933-.07,1.524-.073a6.736,6.736,0,0,1,2.044.225,1.582,1.582,0,0,1,1.013.962,2.661,2.661,0,0,1,.067,1.378,6.46,6.46,0,0,1-1.019,2.5,16.128,16.128,0,0,1-1.59,2.314,14.8,14.8,0,0,1-2.079,2.054,6.4,6.4,0,0,1-2.711,1.359,2.172,2.172,0,0,1-1.676-.311,2.242,2.242,0,0,1-.838-1.413,8.006,8.006,0,0,1,.984-4.968,8.177,8.177,0,0,1,2.273-2.74A4.692,4.692,0,0,1,69.9,257.6a.267.267,0,0,1,.362.152A.259.259,0,0,1,70.117,258.072Z" transform="translate(-65.368 -256.913)" fill="#564956"/>
            </g>
          </g>
        </g>
      </g>
      <g id="Group_4396" data-name="Group 4396" transform="translate(198.118 274.4)">
        <path id="Path_10158" data-name="Path 10158" d="M132.669,320.937c7.854,2.987,11.324,7.368,11.555,10.812s-.54,7.914,1.283,14.543c2,7.3,5.99,11.247,6.733,18.536,2.089,20.53-61.821,27.822-63.259,2.5-.216-3.8.762-7.549,1.721-11.232,4.025-15.489-.292-15.917-3.229-25.854-1.067-3.613,1.978-7.527,5.7-8.19C95.612,321.616,116.885,314.93,132.669,320.937Z" transform="translate(-58.173 -73.647)" fill="#a3d0e7"/>
        <g id="Group_4393" data-name="Group 4393" transform="translate(43.166 278.511)">
          <path id="Path_10159" data-name="Path 10159" d="M123.147,349.94c1.07-.4,1.159.073,2.067.4,1.467.533,10.387-2.336,10.99-3.229a9.259,9.259,0,0,0,.832-3.546,90.292,90.292,0,0,0,.486-9.193c-.019-.921-.479-1.1-1.225-1.419-4.155-1.781-10.013-4.52-16.171-3.762-4.949.609-1.81,1.968-5.625,6.4-4.546,5.289-11.013,4.657-18.5,8.343a7.773,7.773,0,0,0-3.746,3.647,7.161,7.161,0,0,0-.356.978,3.61,3.61,0,0,0,.029,2.454c.768,2.349,5.057,3.3,7.628,3.571C114.255,356.147,119.953,351.147,123.147,349.94Z" transform="translate(-91.693 -329.065)" fill="#191619"/>
          <path id="Path_10160" data-name="Path 10160" d="M136.747,334.454c-.6.9-9.216,3.406-11.362,3.581a17.573,17.573,0,0,0-3.768.994c-3.194,1.2-7.368,4.778-22.073,3.222-2.536-.27-6.727-1.2-7.581-3.479a4.88,4.88,0,0,0-.048,3.044c.768,2.346,5.057,3.3,7.628,3.568,14.7,1.559,20.4-3.444,23.6-4.648,1.07-.4,1.159.07,2.067.4,1.467.536,10.387-2.336,10.99-3.229a13.991,13.991,0,0,0,.883-4.432A3.038,3.038,0,0,1,136.747,334.454Z" transform="translate(-91.688 -319.473)" fill="#cd9b38"/>
        </g>
        <g id="Group_4394" data-name="Group 4394" transform="translate(35.24 243.257)">
          <path id="Path_10161" data-name="Path 10161" d="M90.52,324.681a3.548,3.548,0,0,0-1.244,2.159,2.957,2.957,0,0,0,.34,2.222c1.321,2.441,6.7,3.155,10.257,3.438,8.054.638,22.787,1.54,23.695.864,3.552-2.644,1.959-9.029-1.679-11.822-2.679-2.06-8.486-3.768-10.1-3.565-.883.108-1.136,1.165-1.667,1.841C106.919,323.906,94.818,321.367,90.52,324.681Z" transform="translate(-89.196 -317.96)" fill="#191619"/>
          <path id="Path_10162" data-name="Path 10162" d="M123.562,325.608c-.908.673-15.641-.225-23.695-.863-3.552-.283-8.936-1-10.257-3.438a3.45,3.45,0,0,1-.257-.644,4.039,4.039,0,0,0,.257,2.9c1.321,2.441,6.7,3.156,10.257,3.438,8.054.638,22.787,1.54,23.695.863,1.676-1.248,2.2-3.416,1.9-5.647A5.024,5.024,0,0,1,123.562,325.608Z" transform="translate(-89.191 -312.084)" fill="#cd9b38"/>
        </g>
        <path id="Path_10163" data-name="Path 10163" d="M117.868,350.3c-.7-5.343-1.054-10.73-1.27-16.117a130.135,130.135,0,0,0-1.076-15.133c-1.2-7.673-4.048-15.209-3.5-22.958L91.98,295.1c1.857,14.038,6.743,26.2,9.981,39.872,2.051,8.641,1.682,24.527,1.216,34.438-.092,1.93,16.327,8.787,16.895,4.536C122.424,366.663,118.868,357.9,117.868,350.3Z" transform="translate(-47.903 -124.402)" fill="#1e171e"/>
        <path id="Path_10164" data-name="Path 10164" d="M129.894,349.659c-3.682-18.746-3.175-38.018-4.181-57.094-.041-.794-33.206,4.216-33.206,4.216,1.625,17.4,11.543,38.685,14.127,55.815a598.167,598.167,0,0,1,5.981,59.863c1.629,1.622,5.587,2.93,7.838,3.39,4.435.911,14.009,2.47,16.816-.429C135.522,353.151,132.948,365.208,129.894,349.659Z" transform="translate(-46.757 -130.112)" fill="#231b23"/>
        <path id="Path_10165" data-name="Path 10165" d="M93.559,259.143c-4.848,5.47-6.946,24.431-2.594,53.986.717,4.87,1.771,16.355,2.384,28.015.984,18.743,1.609,39.11,3.749,41.977,3.9,5.228,11.209,6.219,17.708,6.784,9.257.8,22.444-3.063,25.244-9.067a4.046,4.046,0,0,0,.324-2.19c-.432-3.651-2.038-17.622-2.175-24.733-.194-10.143-1.248-12.831.536-25.285s3.778-21.32,4.768-33.866c.343-4.333-.194-9.955-2.733-13.489-1.546-2.152-23.279-18.981-32.269-22.955-4.035-1.784-9.343-4.092-13.12-.946A16.554,16.554,0,0,0,93.559,259.143Z" transform="translate(-55.263 -209.832)" fill="#281e28"/>
        <path id="Path_10166" data-name="Path 10166" d="M114.071,327.939a9.026,9.026,0,0,0,3.952,1.432,8.533,8.533,0,0,0,3.59-.838c2.79-1.159,5.679-2.987,6.416-5.914.556-2.21-2.171-25.022-3.524-33.834-1.454-9.47-1.921-18.181-7.854-24.114-2.94-2.937-21.641,5.089-15.27,23.552,1.108,3.213,9.111,19.857,9.111,19.857a5.283,5.283,0,0,0-5.432-.13c-2.241,1.244-3.511,4.016-3.829,6.467-.432,3.359,1.019,5.022,3.5,7.041A68.529,68.529,0,0,0,114.071,327.939Z" transform="translate(-30.315 -191.87)" fill="url(#linear-gradient-8)"/>
        <path id="Path_10167" data-name="Path 10167" d="M111.375,291.792l-7.473-2.9a5.935,5.935,0,0,1-2.5-1.847L79.179,255.5c-2.222-3.216,9.479-11.2,12.038-8.111l20.209,24.282a5.58,5.58,0,0,0,2.79,1.806L123.21,276Z" transform="translate(-76.346 -229.674)" fill="#281e28"/>
        <path id="Path_10168" data-name="Path 10168" d="M80.146,255.474c2.01,2.079,12.565-4.813,10.911-6.851-.4-.492-1.21-1.524-1.21-1.524-2.994-2.844-13.5,4.06-10.635,7.076Z" transform="translate(-76.729 -230.255)" fill="#fff"/>
        <path id="Path_10169" data-name="Path 10169" d="M86.192,242.413c-.552.248-1.111.521-1.683.768-3.206,1.343-6.34,2.914-6.34,2.914a.125.125,0,0,0-.073.136.132.132,0,0,0,.149.114s3.476-.46,6.882-1.149c.511-.1,1.025-.168,1.53-.251A10.84,10.84,0,0,1,86.192,242.413Z" transform="translate(-78.095 -238.984)" fill="#3f363f"/>
        <g id="Group_4395" data-name="Group 4395" transform="translate(1.268)">
          <path id="Path_10170" data-name="Path 10170" d="M80.219,263.032c-.251-1.6-.273-4.292-.651-6.365-.3-1.651-.432-3.889-.73-5.111a5.079,5.079,0,0,1-.14-3.111c.025-.06.327-.619.4-.524a1.511,1.511,0,0,1-.429-.867,1.441,1.441,0,0,1,.067-.416,5.18,5.18,0,0,1,1.616-2.587c.73-.644,1.565-1.175,2.229-1.886.343-.365.7-.81,1.206-.832.559-.025.975.492,1.279.962a39.124,39.124,0,0,1,2.8,5.257,11.953,11.953,0,0,1,.863,2.435,13.236,13.236,0,0,1,.2,2.482c.032,1.53.286,4.908.317,6.441C89.3,261.682,80.584,265.381,80.219,263.032Z" transform="translate(-78.495 -241.333)" fill="#fbbd9e"/>
          <path id="Path_10171" data-name="Path 10171" d="M78.686,245.576c1.092-.479,1.73-.552,2.035-.429.559.225.714.921.841,1.508a11.682,11.682,0,0,0,1.254,3.279,1.132,1.132,0,0,0,.483.527.8.8,0,0,0,.921-.336,2.039,2.039,0,0,0,.289-1.006,18.344,18.344,0,0,0-.448-6.155c-.3-1.124-1.079-.26-1.759.2C82.083,243.31,78.746,245.637,78.686,245.576Z" transform="translate(-78.079 -238.988)" fill="#f2a883"/>
        </g>
        <path id="Path_10172" data-name="Path 10172" d="M100.507,284.283c.311,3.041,2.225,4.409,4.222,5.619,3.527,2.14,5.514,3.168,8.228,2.594a4.562,4.562,0,0,0,3.387-2.33,5.837,5.837,0,0,0-.66-6.254c-1.448-1.8-8.225-5.686-9.7-6.051C102.777,277.068,100.18,281.112,100.507,284.283Z" transform="translate(-29.421 -162.119)" fill="#fff"/>
        <path id="Path_10173" data-name="Path 10173" d="M116.714,287.4a4.194,4.194,0,0,0,1.13-1.428c.581-1.492-1.289-2.832-2.689-2.308.638-2.949-.952-3.752-3.27-2.47-.016-.263-.324-3.536-.387-3.794-.34-1.362-.832-3.083-1.686-3.371a1.85,1.85,0,0,0-1.257.3c-.606.527-.286,1.356-.054,2.1a9.436,9.436,0,0,1,.013,4.365,17.7,17.7,0,0,1-3.692,3.451c.1-3.943-.222-8.844-2.435-8.047-.663.238-.638,1.454-.635,2.156,0,2.86,0,3.616-.527,5.317-.3.968.048,3.4.108,4.413.07,1.156.086,2.1.133,3.8a3.083,3.083,0,0,0,1.254,2.409c2.283,1.682,7.159,4.949,9.14,3.73,1.21-.743,4.06-4.155,4.8-5.159a5.794,5.794,0,0,0,1.311-3.422A2.058,2.058,0,0,0,116.714,287.4Z" transform="translate(-28.063 -170.278)" fill="#fbbd9e"/>
        <path id="Path_10174" data-name="Path 10174" d="M97.6,261.249c5.267-8.1,22.181,3.136,23.066,4.025,1.4,1.4,1.222,11.917-10.552,28.622-3.194,4.527-7.679,8.724-16.473,18.571C89.842,296.712,85.916,279.224,97.6,261.249Z" transform="translate(-52.61 -204.373)" fill="#352835"/>
        <path id="Path_10175" data-name="Path 10175" d="M93.057,271.988a165.263,165.263,0,0,0-1.673,40.558c2.54-3.654,10.162-18.546,11.978-21.39,4.962-7.778,16.387-25.946,15.212-27.12a6.681,6.681,0,0,0-2.2-1.286l-4.7-1.99a28.1,28.1,0,0,0-7.419-2.359c-3.444-.422-6.073.337-7.686,3.34A31.724,31.724,0,0,0,93.057,271.988Z" transform="translate(-50.348 -204.451)" fill="#efefed"/>
        <path id="Path_10176" data-name="Path 10176" d="M92.534,278.293c-.422,1.7.124,2.549,1.832,2.946,8.368,1.937,15.13-4.048,15.162-6.159.067-4.2-2.6-9.924-4.34-11.546-.61-.571-11.574-5.908-11.552-5.2C93.858,265.29,94.7,269.588,92.534,278.293Z" transform="translate(-46.994 -204.496)" fill="#f2a883"/>
        <path id="Path_10177" data-name="Path 10177" d="M100.592,267.714a5.543,5.543,0,0,0-2.124-2.533c-.229-.089-3.238.33-3.416,1.6-.143,1.06-.6,5.517.032,6.778L90.856,287c.057,4.13.241,7.549.527,10.594a87.727,87.727,0,0,0,5.378-9.368l.632-13.968a1.184,1.184,0,0,0,.219-.073C98.669,273.5,101.221,269.184,100.592,267.714Z" transform="translate(-50.347 -189.499)" fill="#f33"/>
        <path id="Path_10178" data-name="Path 10178" d="M111.178,260.345s.022,4.6-4.34,10.3c-3.349,4.378-13.584,5.022-13.584,5.022l7.127,11.143S115.749,270.913,111.178,260.345Z" transform="translate(-45.132 -199.99)" fill="#fff"/>
        <path id="Path_10179" data-name="Path 10179" d="M100.028,278.957l-9.889,3.251s2.565-15.463,9.282-23.374C99.421,258.834,91.91,270.424,100.028,278.957Z" transform="translate(-51.906 -203.275)" fill="#fff"/>
        <path id="Path_10180" data-name="Path 10180" d="M93.023,271.826c.9,4.19,3.714,7.673,6.435,10.984a13.15,13.15,0,0,0,2.8,2.781,6.08,6.08,0,0,0,4.143.959,5.293,5.293,0,0,0,3.6-2.21,89.122,89.122,0,0,0,4.927-8.14c1.981-4.457,2.4-7.7,3.87-11.587a11.258,11.258,0,0,0,.94-5.394c-.06-.381-27.066-6.051-27.066-4.755,0,2.819.178,9.473.035,12.451A19.015,19.015,0,0,0,93.023,271.826Z" transform="translate(-46.394 -213.195)" fill="#fbbd9e"/>
        <path id="Path_10181" data-name="Path 10181" d="M92.565,261.945c.444-8.994,7.181-12.038,15.111-12.419a14.19,14.19,0,0,1,7.022,1.216,17.832,17.832,0,0,1,4.457,3.2c2.27,2.444,4.168,5.47,4.343,8.8.124,2.352-4.063,14.663-5.117,15.371,1.044-5.308,1.6-6.19.035-6.482-6.336-1.178-13.254-2.336-19.777.032-2.533.921-2.082,5.933-3.038,6.514-1.1.673-.994-1.321-1.025-1.848-.051-.822.013-1.648.013-2.467a16.975,16.975,0,0,0-.5-4.117,3.792,3.792,0,0,0-.7-1.578c-.492-.565-.848-.425-.924-1.206A35.409,35.409,0,0,1,92.565,261.945Z" transform="translate(-46.989 -223.57)" fill="#2b2119"/>
        <path id="Path_10182" data-name="Path 10182" d="M93.269,254.981c-2.943-.083-.819,11.114,1.644,12.009.851.308.936-.73.952-2.07s.019-2.765-.092-4.114C95.583,258.486,95.933,255.057,93.269,254.981Z" transform="translate(-48.211 -211.654)" fill="#fbbd9e"/>
        <path id="Path_10183" data-name="Path 10183" d="M92.315,241.54c-8.2,2.549-9.359,2.838-10.041,3.2a18.1,18.1,0,0,1-3.317,2.283c.086.273.3.14.492.07.835-.321,1.057.425,1.4.956.279.225,12.39-3.343,12.593-3.416C94.664,244.194,93.711,241.1,92.315,241.54Z" transform="translate(-76.224 -240.974)" fill="#3f363f"/>
      </g>
    </g>
  </g>
</svg>
