<svg xmlns="http://www.w3.org/2000/svg" width="460.042" height="378.145" viewBox="0 0 460.042 378.145">
  <g id="Group_233201" data-name="Group 233201" transform="translate(-51.12 -235.78)">
    <ellipse id="Ellipse_10" data-name="Ellipse 10" cx="230.021" cy="132.805" rx="230.021" ry="132.805" transform="translate(51.12 348.316)" fill="#bcdbed"/>
    <ellipse id="Ellipse_11" data-name="Ellipse 11" cx="230.021" cy="132.805" rx="230.021" ry="132.805" transform="translate(51.121 314.916)" fill="#d5e9f4"/>
    <g id="Group_5688" data-name="Group 5688" transform="translate(106.298 235.78)">
      <path id="Path_13589" data-name="Path 13589" d="M347.822,118.633l-35.279,62.173L233.656,148.5,290.738,245.7l-13.475,82.941,70.559-2.1,70.558,83.57-13.475-98.5,57.084-31.292L383.1,221.543Z" transform="translate(-233.654 -98.053)" fill="#ea9230"/>
      <path id="Path_13590" data-name="Path 13590" d="M342.8,143.954l-59.434-24.342-35.651,20.579L326.6,172.505Z" transform="translate(-247.713 -89.749)" fill="#c77414"/>
      <path id="Path_13591" data-name="Path 13591" d="M265.174,239.952,229.9,137.042l35.645-20.58,35.279,102.911,78.887,58.781-35.645,20.58Z" transform="translate(-115.728 -116.462)" fill="#c77414"/>
      <path id="Path_13592" data-name="Path 13592" d="M270.273,136.923l13.343,97.536-35.645,20.579-13.475-98.5Z" transform="translate(-63.245 57.029)" fill="#c77414"/>
    </g>
  </g>
</svg>
