<svg xmlns="http://www.w3.org/2000/svg" width="460.042" height="450.826" viewBox="0 0 460.042 450.826">
  <g id="Group_5690" data-name="Group 5690" transform="translate(-397.994 -1432.174)">
    <g id="Group_3926" data-name="Group 3926" transform="translate(346.873 1269.075)">
      <ellipse id="Ellipse_10" data-name="Ellipse 10" cx="230.021" cy="132.805" rx="230.021" ry="132.805" transform="translate(51.12 348.316)" fill="#d6d5f4"/>
      <ellipse id="Ellipse_11" data-name="Ellipse 11" cx="230.021" cy="132.805" rx="230.021" ry="132.805" transform="translate(51.121 314.916)" fill="#efeffb"/>
    </g>
    <g id="Group_4417" data-name="Group 4417" transform="translate(-12.526 1307.015)">
      <g id="Group_4397" data-name="Group 4397" transform="translate(487.589 295.466)">
        <path id="Path_10184" data-name="Path 10184" d="M484,220.038l42.863-24.284,0-13.387-42.863,24.285Z" transform="translate(-418.892 -139.767)" fill="#f2594e"/>
        <path id="Path_10185" data-name="Path 10185" d="M531.61,229.48l-65.106-37.2,0-13.386,65.106,37.2Z" transform="translate(-466.501 -149.209)" fill="#edaa5c"/>
        <path id="Path_10186" data-name="Path 10186" d="M584.291,208.114l-65.106-37.193L466.5,200.612l65.106,37.193Z" transform="translate(-466.501 -170.921)" fill="#f3c087"/>
        <path id="Path_10187" data-name="Path 10187" d="M552.636,228.633l-44.628-24.742-20.179,12.292,44.628,24.742Z" transform="translate(-408.455 -81.187)" fill="#e3dadd" style="mix-blend-mode: multiply;isolation: isolate"/>
      </g>
      <g id="Group_4398" data-name="Group 4398" transform="translate(539.263 290.016)">
        <path id="Path_10188" data-name="Path 10188" d="M500.149,255.355l74.574-34.706,0-39.689-74.573,42.777Z" transform="translate(-426.609 -138.149)" fill="#a5c900"/>
        <path id="Path_10189" data-name="Path 10189" d="M553.929,255.377,480.39,216.218l0-35.267,73.54,42.808Z" transform="translate(-480.386 -138.171)" fill="#e7d1a2"/>
        <path id="Path_10190" data-name="Path 10190" d="M628.489,212.262l-73.539-42.805-74.563,42.783,73.54,42.805Z" transform="translate(-480.386 -169.456)" fill="#eddfbc"/>
      </g>
      <g id="Group_4399" data-name="Group 4399" transform="translate(576.544 289.064)">
        <path id="Path_10191" data-name="Path 10191" d="M510.166,243.983l74.574-41.8,0-22.857L510.163,222.1Z" transform="translate(-436.626 -141.644)" fill="#a5c900"/>
        <path id="Path_10192" data-name="Path 10192" d="M531.869,259.518,490.407,235.2l0-54.507,73.54,42.808Z" transform="translate(-490.404 -137.916)" fill="#bebced"/>
        <path id="Path_10193" data-name="Path 10193" d="M638.507,212.005l-73.54-42.8L490.4,211.983l73.54,42.805Z" transform="translate(-490.404 -169.2)" fill="#d6d5f4"/>
      </g>
      <g id="Group_4400" data-name="Group 4400" transform="translate(604.38 274.58)">
        <path id="Path_10194" data-name="Path 10194" d="M516.3,304.05l80.414-45.56-.007-82.529-80.414,45.56Z" transform="translate(-447.78 -136.317)" fill="#bcdbed"/>
        <path id="Path_10195" data-name="Path 10195" d="M566.408,299.72,497.89,260.081l-.007-82.53L566.4,217.191Z" transform="translate(-497.883 -131.987)" fill="#8bc2e0"/>
        <path id="Path_10196" data-name="Path 10196" d="M646.8,204.942l-68.518-39.633-80.395,45.571L566.4,250.512Z" transform="translate(-497.883 -165.309)" fill="#eef5fb"/>
      </g>
      <g id="Group_4405" data-name="Group 4405" transform="translate(639.704 125.159)">
        <path id="Path_10197" data-name="Path 10197" d="M521.057,164.792c.041-.443.071-.815.093-1.1l-.044.3S521.09,164.293,521.057,164.792Z" transform="translate(-470.136 -20.293)" fill="#6c97db"/>
        <path id="Path_10198" data-name="Path 10198" d="M510.608,201.522c1.362,8.214,14.972,9.777,30.4,3.487s26.825-18.035,25.463-26.249-14.972-9.773-30.4-3.487S509.246,193.312,510.608,201.522Z" transform="translate(-498.876 0.737)" fill="#e3dadd" style="mix-blend-mode: multiply;isolation: isolate"/>
        <g id="Group_4401" data-name="Group 4401" transform="translate(45.39 168.544)">
          <path id="Path_10199" data-name="Path 10199" d="M519.571,170.518c.026-.022.06-.007.089-.011s.063-.045.1-.059Z" transform="translate(-519.571 -170.447)" fill="#ebebeb"/>
        </g>
        <path id="Path_10200" data-name="Path 10200" d="M524.851,133.659c.164.48.476,1.243.789,1.976.13.636.339,1.626.469,2.263-.015,1.031.078,2.069,0,3.108-.171,2.3-.581,4.581-.785,6.881a93.264,93.264,0,0,1-1.857,9.5,3,3,0,0,0,4.131,3.457,7.679,7.679,0,0,0,3.692-5.166,58.957,58.957,0,0,0-.648-6.662,39.193,39.193,0,0,1,.387-7.1c.1-1.41-.108-2.456.614-3.707.052-.093.112-.186.167-.279l.153,0s.045-.164.111-.439A6.141,6.141,0,0,0,533.1,135.2a3.493,3.493,0,0,0-.089-2.307,17.557,17.557,0,0,0,0-4.864c-.052-1.195.413-1.068-1.854-2.363s-2.285.279-2.285.279l-.841-.06a.7.7,0,0,0-.833.685l-.614,4.7a1.525,1.525,0,0,0-.6.6c-.026.063,0,.127-.015.186-.64-.908-1.864-2.456-2.575-2.162C522.395,130.306,524.449,132.483,524.851,133.659Z" transform="translate(-464.511 -125.159)" fill="#e8b58f"/>
        <path id="Path_10201" data-name="Path 10201" d="M523.847,132.571l.041-2.788a2.93,2.93,0,0,0,3.078.622,4.245,4.245,0,0,0,2.542-1.422l.034,2.907S526.251,136.315,523.847,132.571Z" transform="translate(-462.543 -114.752)" fill="#c5e4e6"/>
        <g id="Group_4402" data-name="Group 4402" transform="translate(24.868 182.887)">
          <path id="Path_10202" data-name="Path 10202" d="M521.371,174.931a5.456,5.456,0,0,1-2.013.2c-.577-.134-1.008-.573-1.567-.748a2.738,2.738,0,0,0-1.18-.03,2.963,2.963,0,0,0-2.359,1.757c-.439.975-.015,2.17.1,3.182.134,1.213-.38,1.623.119,2.814a16.834,16.834,0,0,0,2.214,3.212l.413-.056c-.033.007.529,2.032.573,2.181a10.255,10.255,0,0,0,1.4,3.048,13.191,13.191,0,0,0,1.712,2.025,9.671,9.671,0,0,0,4.567,2.985,4.859,4.859,0,0,0,1.087.119,6.027,6.027,0,0,0,1.82-.354,4.389,4.389,0,0,0,2.434-1.526,5.428,5.428,0,0,0,.141-4.749,28.679,28.679,0,0,0-1.865-3.543q-1.328-2.127-2.661-4.246c-1.02-1.626-1.109-3.7-1.6-5.515a1.139,1.139,0,0,0-.149-.361C524.043,174.633,522.1,174.819,521.371,174.931Z" transform="translate(-514.057 -174.301)" fill="#07090a"/>
        </g>
        <path id="Path_10203" data-name="Path 10203" d="M541.026,182.007c.265-2.449-4.38-4.585-6.062-5.6-1.355-.819-2.877-1.247-3.658-2.758-.383-.741-.7-1.526-1.046-2.285l-10.971.473a8.18,8.18,0,0,0-.733,3.335,19.912,19.912,0,0,1-.026,2.948s.562,1.4,3.361,2.579a17.057,17.057,0,0,0,3.2,1.2l.167-.9,1.537.581.9,1.239c.774,1.064,3.64,1.63,4.808,2.058a11.61,11.61,0,0,0,5.876.309C540.39,184.854,540.814,184,541.026,182.007Z" transform="translate(-477.016 0.579)" fill="#07090a"/>
        <path id="Path_10204" data-name="Path 10204" d="M533.19,158.477c5.054-4.563,1.8,17.231,1.5,22.218a85.814,85.814,0,0,1-1.392,12.691,103.2,103.2,0,0,0-1.053,12.1,120.652,120.652,0,0,0-.13,14.671c.153,2.08-.163,2.735-2.043,3.889a9.662,9.662,0,0,1-4.939,1.332c-4.905.071-6.732-2.836-6.732-2.836s.391-9.133-.015-14.458a58.631,58.631,0,0,1,1.6-19.46c1.191-4.622,1.1-9.639.986-14.373-.082-3.532-1.165-7.979.2-11.317.2-.5.439-.983.67-1.466,1.213-2.534,2.56-5.218,4.987-6.632a12.224,12.224,0,0,1,3.96-1.094c1.024-.175,3.934-1.3,4.79-.688a2.042,2.042,0,0,1,.659,1.2,18.639,18.639,0,0,1,.469,2.479C536.982,158.991,531.623,159.895,533.19,158.477Z" transform="translate(-477.967 -49.732)" fill="#082121"/>
        <path id="Path_10205" data-name="Path 10205" d="M533.471,135.7a25.058,25.058,0,0,0,.376-5.486,6.683,6.683,0,0,0,7.626-.685c-.156,4.131-.577,8.314-.577,12.453-.294,3.71-.175,7.428-.525,11.131-.309,3.282-1.66,6.554-2.728,9.646a65.113,65.113,0,0,1-4.224,9.609,46.559,46.559,0,0,1-3.227,5.385c-1.087,1.515-2.04,3.323-3.826,4.124-.115.048-1.537.491-1.537.145,0,0-4.027-1.1-4.719-4.73-.61-3.208-.4-8.586,1.589-11.3a16.6,16.6,0,0,1,2.077-2.047,8.4,8.4,0,0,0,1.578-2.453q1.575-3.065,3.152-6.137a20.586,20.586,0,0,0,2.434-6.729C531.874,144.312,532.76,140.055,533.471,135.7Z" transform="translate(-473.536 -113.263)" fill="#213435"/>
        <path id="Path_10206" data-name="Path 10206" d="M530.614,145.672a8.089,8.089,0,0,0-2.408-4.968c-2.5-2.721-6.5-1.526-6.5-1.526-.9.145-1.433,1.314-1.678,3.141,1.652.413,3.68,0,5.251.063a7.211,7.211,0,0,1,4.648,2.456C530.186,145.092,530.376,145.4,530.614,145.672Z" transform="translate(-472.931 -87.716)" fill="#213435"/>
        <g id="Group_4403" data-name="Group 4403" transform="translate(23.201 94.361)">
          <path id="Path_10207" data-name="Path 10207" d="M536.2,177.615c1.12-1.128,2.248-2.419,2.382-3.807a20.674,20.674,0,0,0-.521-7.026c-.115-.461-.078-.514.242-.77.372-.3.785-.569,1.172-.852l2.441-1.8q1.725-1.267,3.446-2.538a3.716,3.716,0,0,1,2.274-.242,34.9,34.9,0,0,0-1.619-10.067s.584,1.571-10,7.521a30.276,30.276,0,0,1-8.15,3.279,13.142,13.142,0,0,1-5.947.316,8.539,8.539,0,0,0-2.746.354,4.071,4.071,0,0,0-1.589.819,4.219,4.219,0,0,0-.752,1.169,12.308,12.308,0,0,0-.767,2.051,28.676,28.676,0,0,0-.841,5.3,74.767,74.767,0,0,0,.007,7.8c.048,2.307.034,4.686.227,6.993.123,1.463.246,2.925.327,4.388a74.929,74.929,0,0,1-.123,12.959c-.465,3.956-1.671,7.722-1.973,11.716a58.646,58.646,0,0,0,.119,7.536c.309,5.97.357,11.958.886,17.916a1.266,1.266,0,0,0,.13.551,1.3,1.3,0,0,0,.328.342c1.091.889,2.907,2.665,4.328,2.754,2.557.16,5.073-.022,7.168-1.675a62.573,62.573,0,0,1-.257-9.07c.179-4.109.123-8.117.633-12.2a22.288,22.288,0,0,1,.648-3.015c.863-3.182,2.482-6.773,3.212-9.989a52.147,52.147,0,0,0,1.035-5.608c.621-4.265,1.507-10.715,1.753-15.087.145-2.616.458-4.7.6-7.32a2.223,2.223,0,0,1,.16-.83,2.254,2.254,0,0,1,.4-.506C535.236,178.553,535.717,178.1,536.2,177.615Z" transform="translate(-513.609 -150.514)" fill="#152c2c"/>
        </g>
        <path id="Path_10208" data-name="Path 10208" d="M551.077,168.2a35.211,35.211,0,0,1-12.3-6.785,112.4,112.4,0,0,1-12.81-12.01c-2.665-3.074-3.372-5.8-4.232-9.315-1.835,1.362-3.736,2.881-5.861,4.607a13.169,13.169,0,0,0-3.048,3.357c.413,3.364.871,6.714,1.318,10.093.324,2.449.744,5.683-1,7.7,2.449,5.136,6.732,10.662,7.581,12.475,1.154,2.5-2.594,25.151-2.594,25.151,10.83,3.658,17.8,3.506,22.78,1.924,6.271-1.987,10.51-15.292,10.51-15.292S550.265,182.155,551.077,168.2Z" transform="translate(-492.538 -84.534)" fill="#304445"/>
        <path id="Path_10209" data-name="Path 10209" d="M520.528,149.767c2.635-.573,3.4-1.042,3.625-1.247l.093-1.894s-.156.584-3.718,1.362a10.393,10.393,0,0,1-4.3-.164l.1,1.8A10.32,10.32,0,0,0,520.528,149.767Z" transform="translate(-483.265 -66.734)" fill="#213435"/>
        <path id="Path_10210" data-name="Path 10210" d="M540.139,144.556a2.115,2.115,0,0,1-2.586.521c-.651-.32-1.236-.778-1.894-1.105-.569-.283-1.183-.45-1.775-.688a2.188,2.188,0,0,1-1.5-2.631,2.131,2.131,0,0,1,.625-.942c-.763-.246-1.555-.476-2.389-.692a12.011,12.011,0,0,0-7.067-.052,32.667,32.667,0,0,0-6.766,3.472c-.35.227-.7.484-1.057.726,1.206,4.6,2.371,7.719,5.966,11.463a132.666,132.666,0,0,0,10.7,9.687,31.62,31.62,0,0,0,10.919,5.821C544.114,157.008,542.425,148.78,540.139,144.556Z" transform="translate(-484.626 -88.966)" fill="#c5e4e6"/>
        <path id="Path_10211" data-name="Path 10211" d="M531.355,148.831c.019.439.023.875.015,1.31-.03,1.783.621,3.722-.339,5.266-.748,1.206-1.537-4.939-2.382-5.917-1.526-1.779-4.685,3.044-6.252,1.329-1.716-1.883-3.9-3.409-5.705-5.221a1.6,1.6,0,0,1-.48-2.106c.819-2.412,2.56-3.517,4.793-4.436a12.038,12.038,0,0,1,7.068-.2c.744,1.381,1.418,2.806,2.05,4.239A15.872,15.872,0,0,1,531.355,148.831Z" transform="translate(-483.851 -89.051)" fill="#ffc0a3"/>
        <path id="Path_10212" data-name="Path 10212" d="M524.225,151.74c.1-1.742.443-3.5.372-5.255a12.82,12.82,0,0,0-2.106-6.42c-1.3,1.935-2.549,4.321-2.549,4.321a8.526,8.526,0,0,0-.272,4.027c.324,2.036,2.319,2.7,3.781,13.923C524.359,158.934,524.005,155.368,524.225,151.74Z" transform="translate(-474.227 -84.591)" fill="#bae0e3"/>
        <path id="Path_10213" data-name="Path 10213" d="M525.047,151.613q-.128,3.8-.264,7.6l-.015.346a37.739,37.739,0,0,0,4.54,1.712c-.1-.882-.194-1.764-.3-2.646-.082-.644-.164-1.291-.253-1.939a4.389,4.389,0,0,1-.123-.956,6.212,6.212,0,0,1,.2-.7,15.049,15.049,0,0,0,.376-3.807,10.267,10.267,0,0,1,.056-2.415c.141-.677.1-1.358.3-2.043a14.857,14.857,0,0,1,.908-2.211,6.362,6.362,0,0,0,.867-3.182.519.519,0,0,0-.138-.361c-.186-.167-.476-.034-.688.1a5.73,5.73,0,0,1-1.563.774,1.508,1.508,0,0,1-.711.1c-.3-.078-.476-.3-.822-.238-.953.167-.837,1.544-.7,2.218-.03-.141-.19-.309-.246-.454s-.086-.268-.149-.4c-.112-.234-.268-.666-.536-.767-.287-.1-.67.346-.811.54a3.929,3.929,0,0,1-.785.785c-2.01,1.626-4.663.089-6.933.331-.123.011-.279.063-.279.186a.281.281,0,0,0,.067.156q.731.988,1.544,1.917a2.173,2.173,0,0,0,.707.648c.357.164.726.316,1.094.461.752.3,1.522.558,2.3.782.208.059,2.307.48,2.311.54A23.246,23.246,0,0,1,525.047,151.613Z" transform="translate(-481.227 -82.231)" fill="#81c0c4"/>
        <path id="Path_10214" data-name="Path 10214" d="M524.042,156.79c-.075-.67-.153-1.351-.231-1.995-.153-1.1-.279-2.162-.432-3.182-.175-1.169-.346-2.293-.521-3.29-.216-1.169-.432-2.188-.648-3.029-.715-2.728-1.5-3.573-2.3-.953,0,0-.041,1.038-.086,2.769-.045,1-.086,2.229-.13,3.617-.045,1.146-.085,2.423-.13,3.766-.011.264-.019.558-.03.826A41.022,41.022,0,0,0,524.042,156.79Z" transform="translate(-474.268 -77.267)" fill="#19394f"/>
        <path id="Path_10215" data-name="Path 10215" d="M520.669,141.588l-1.521,4.533,3.294,2.511,1.322-4.545Z" transform="translate(-475.334 -80.445)" fill="#415673"/>
        <path id="Path_10216" data-name="Path 10216" d="M519.264,143.689a5.086,5.086,0,0,0-.491-.849,2.834,2.834,0,0,0-1.116-1.053,2.959,2.959,0,0,0-1.157-.175c-1.392-.011-2.017,0-2.914,1.083a6.726,6.726,0,0,0-1.366,2.795c-.566,2.378.491,4.846,1.124,7.123a87.1,87.1,0,0,1,2.077,11.3,61.63,61.63,0,0,1,.763,8.009,62.525,62.525,0,0,1-.644,8.076c-.312,2.523-.625,5.054-1.135,7.547-.391,1.894-2.065,4.808-.737,6.479,2.389,3,4.894,4.991,8.671,5.783-.376-.112,1.541-9.594,1.7-10.4.57-2.91.287-6.237.194-9.2-.1-3.145-.346-6.286-.737-9.4-.45-3.576-1.094-7.127-1.734-10.674-.249-1.381-.5-2.761-.871-4.112-.309-1.131-.7-2.24-.968-3.383a17.939,17.939,0,0,1-.383-5.236A7.178,7.178,0,0,0,519.264,143.689Z" transform="translate(-494.629 -80.384)" fill="#213435"/>
        <path id="Path_10217" data-name="Path 10217" d="M517.063,138.938a12.332,12.332,0,0,0-.175,2.058,5.862,5.862,0,0,1-.019.625,5.065,5.065,0,0,1-.264,1.064,8.258,8.258,0,0,0-.472-.785,3.648,3.648,0,0,1-.275-.949,1.353,1.353,0,0,1,.123-1.061A6.8,6.8,0,0,1,517.063,138.938Z" transform="translate(-484.422 -87.658)" fill="#c5e4e6"/>
        <path id="Path_10218" data-name="Path 10218" d="M530.616,187.288v-.022q-.424-2.858-.715-6.3a93.061,93.061,0,0,1-.13-12.9c1.039-18.467,1.016-20.287-2.553-25.653-.082-.123-.2-.275-.327-.443a2.2,2.2,0,0,1-3.7.067,4.162,4.162,0,0,0-.677-.852,1.829,1.829,0,0,1-.592-1.786,1.86,1.86,0,0,0-.633.22,5.54,5.54,0,0,0-.584.521,17.9,17.9,0,0,1,2.728,11.69c-.413,5.757.432,11.6-2.62,16.758.041.387.086.756.108,1.169.886,10.305.13,12.6.629,19.806.324,4.44.852,17.16.852,17.16s7.752-3.011,8.727-5.888C531.666,199.163,531.591,194.15,530.616,187.288Z" transform="translate(-471.102 -86.417)" fill="#2c4042"/>
        <path id="Path_10219" data-name="Path 10219" d="M529.4,144.108s-3.7-3.829-5.415-4.823a4.441,4.441,0,0,0-3.96.119l2.2,8.21c1.31,4.1-1.105,17.071-.99,17.633s2.367,24.674,2.367,24.674,2.27-21.373,2.918-24.328C527.648,160.45,529.4,144.108,529.4,144.108Z" transform="translate(-472.931 -87.908)" fill="#213435"/>
        <path id="Path_10220" data-name="Path 10220" d="M521.121,142.676l-1.463,3.394,1.7,3.718s2.523-2.676,2.285-8.15S521.121,142.676,521.121,142.676Z" transform="translate(-473.944 -86.275)" fill="#daf2ff"/>
        <path id="Path_10221" data-name="Path 10221" d="M516.209,143.235a1.58,1.58,0,0,0,.428,2.047c.48.488.99.942,1.492,1.4.655.577,1.325,1.143,1.984,1.716.372.305.737.622,1.113.923a1.8,1.8,0,0,1,.532.607c.212.212.435.417.636.636l.067.071a7.482,7.482,0,0,1-.618-2.222c-.056-.354-.1-.715-.156-1.083a17.674,17.674,0,0,1-.145-3.915c.115-1.53.447-3.044.454-4.578,0-.1-.026-.208-.03-.316a7.388,7.388,0,0,0-.964.279C518.77,139.718,517.028,140.824,516.209,143.235Z" transform="translate(-483.848 -88.796)" fill="#f7a883"/>
        <path id="Path_10222" data-name="Path 10222" d="M516.751,139.868q-.033.313-.056.625-.14,1.887-.179,3.774c-.007.447-.175,1.317.06,1.682a4,4,0,0,0,.886.726,19.99,19.99,0,0,0,5.259,2.988c4.782,1.786,6.171.662,6.171.662l.525-10.063a5.716,5.716,0,0,0-1.042-.458q-1.306-.553-2.654-1.016a26.155,26.155,0,0,0-4.782-1.228,11.175,11.175,0,0,0-2.311-.127,1.363,1.363,0,0,0-.934.272,3.022,3.022,0,0,0-.759,1.254A4.994,4.994,0,0,0,516.751,139.868Z" transform="translate(-482.671 -91.796)" fill="#ffc0a3"/>
        <path id="Path_10223" data-name="Path 10223" d="M521.055,137.447a6.9,6.9,0,0,0-2.784.283c-.7.249-1.567.8-1.619,1.6-.156,2.467-.231,4.927-.618,7.373a.7.7,0,0,0,.011.391.685.685,0,0,0,.424.3,16.29,16.29,0,0,0,2.654.7,9.883,9.883,0,0,1,2.423.45,1.562,1.562,0,0,1,.6-1.28c.51-.275,1.131.376,1.6.525a20.676,20.676,0,0,0,2.114.592,15.266,15.266,0,0,0,4.373.257c.331-.03.752-.041.811-.447a.589.589,0,0,0-.316-.577,13.744,13.744,0,0,0-1.533-.618c-1.373-.737-2.579-1.76-4.012-2.386a18.114,18.114,0,0,1-2.438-1.042,1.451,1.451,0,0,1-.819-1.046c-.019-.536.1-1.068.026-1.626a12.03,12.03,0,0,0-.383-1.734A11.1,11.1,0,0,0,521.055,137.447Z" transform="translate(-483.867 -91.787)" fill="#f7a883"/>
        <path id="Path_10224" data-name="Path 10224" d="M536.357,158c-.447,3.041-3.308,3.964-7.194,3.223a15.252,15.252,0,0,1-5.441-2.653c-.618-.458-1.139-.863-1.57-1.213l-.376-.327a2.546,2.546,0,0,0-.309-.272c-.249-.246-.406-.383-.406-.383-10.086-10.514-3.963-11.738-2-16.52a4.8,4.8,0,0,1,.577-1.061,5.375,5.375,0,0,1,.588-.8c2.921-3.673,9.334-5.795,12.438-5.355a7.092,7.092,0,0,1,5.121,4.023,14.84,14.84,0,0,1,1.291,3.163,2.3,2.3,0,0,1,.089.462C539.733,143.99,536.778,155.1,536.357,158Z" transform="translate(-485.474 -104.966)" fill="#fecda9"/>
        <path id="Path_10225" data-name="Path 10225" d="M538.46,137.889a1.559,1.559,0,0,0-.67.037,10.567,10.567,0,0,1-1.236.324,26.261,26.261,0,0,1-2.951.346,8.385,8.385,0,0,1-1.909-.052,8.27,8.27,0,0,0-2.077-.13,4.978,4.978,0,0,0-4.28,4.131c-.312,1.444-.1,2.97-.294,4.444-.052.4.007.823-.074,1.213a4.474,4.474,0,0,1-.633,1.306,3.787,3.787,0,0,0-.759,1.6c-.048.588-.063,1.221-.1,1.824a16.182,16.182,0,0,0,.242,4.019c-.618-.458-1.139-.863-1.57-1.213a2.1,2.1,0,0,0-.376-.327,2.533,2.533,0,0,0-.309-.272c-.249-.246-.406-.383-.406-.383-10.086-10.514-3.963-11.738-2-16.52a4.8,4.8,0,0,1,.577-1.061,5.373,5.373,0,0,1,.588-.8,10.252,10.252,0,0,1,5.779-2.925,17.717,17.717,0,0,1,4.138-.246,15.148,15.148,0,0,1,5.367,1.079c.547.257,1.436.462,2.274.759.45.156.707.979.83,1.381.074.249.063.5.126.748a5.56,5.56,0,0,0,.32.852A3.945,3.945,0,0,0,538.46,137.889Z" transform="translate(-485.474 -103.349)" fill="#ffc4a8"/>
        <g id="Group_4404" data-name="Group 4404" transform="translate(28.462 22.095)">
          <path id="Path_10226" data-name="Path 10226" d="M537.835,136.976c-.431-.432-.867-.886-1.343-1.3a22.576,22.576,0,0,0-3.029-2.36c-.26-.171-.54-.324-.823-.476a12.579,12.579,0,0,0-4.44-1.6,12.432,12.432,0,0,0-10.067,3.093c-.108.089-.193.2-.3.283-.022,0-.022.022-.045.045a7.337,7.337,0,0,0-2.661,5.348,48.823,48.823,0,0,0,.152,8.18c.216,2.188,1.146,3.986,1.731,6.044a9.341,9.341,0,0,0,2.6,4.392,4.812,4.812,0,0,0,1.191.93c-.022-.257.086-.819.086-.971a10.486,10.486,0,0,0-1.905-5.3,6.106,6.106,0,0,1-.908-1.887,3.981,3.981,0,0,1,.413-2.747,1.712,1.712,0,0,1,2.639-.2c1.388,1.429,1.712,3.919,1.775,5.8.673-.108,1.582-.238,1.775.584,0-.324,0-.648.022-.971.023-.912.108-1.8.216-2.709.13-.994.476-1.969.606-2.944a2.524,2.524,0,0,0,.045-.409c.368-3.986,4.176-5.393,10.823-5.393,2.274,0,2.9.5,3.77,1.213C540.042,141,539.417,138.621,537.835,136.976Z" transform="translate(-515.022 -131.096)" fill="#ebc471"/>
          <path id="Path_10227" data-name="Path 10227" d="M525.516,145.6c-.13.975-.476,1.95-.606,2.944-.108.912-.193,1.8-.216,2.709-.022.324-.022.648-.022.971-.193-.823-1.1-.692-1.775-.584-.063-1.883-.387-4.373-1.775-5.8a1.712,1.712,0,0,0-2.639.2,3.981,3.981,0,0,0-.413,2.747,6.106,6.106,0,0,0,.908,1.887,10.485,10.485,0,0,1,1.905,5.3c0,.153-.108.715-.086.971a4.812,4.812,0,0,1-1.191-.93,9.341,9.341,0,0,1-2.6-4.392c-.584-2.058-1.515-3.856-1.731-6.044a48.823,48.823,0,0,1-.152-8.18,7.337,7.337,0,0,1,2.661-5.348,3.512,3.512,0,0,0-.584.994,5.176,5.176,0,0,0-.108.782c-.108,1.578-.279,4.049,1.061,5.236,2.188,1.928,4.4,3.833,6.584,5.761.108.086.193.171.3.261C525.215,145.258,525.364,145.433,525.516,145.6Z" transform="translate(-515.022 -128.488)" fill="#e6b96c"/>
        </g>
        <path id="Path_10228" data-name="Path 10228" d="M516.044,136.418c-.082.473-.238,1.2-.413,1.935a2.951,2.951,0,0,1-.033.454,16.989,16.989,0,0,0-.7,3.253,8.324,8.324,0,0,0,.67,3.163c.558,1.366,1.7,2.75,2.08,4.146a7.4,7.4,0,0,1-.886,4.566,8.783,8.783,0,0,1-1.734,2.036c-.413.387-.945.8-1.489.636a1.664,1.664,0,0,1-.815-.722,5.378,5.378,0,0,1-.785-2.222c-1.507-8.333-1.44-9.315-2.959-12.274a5.875,5.875,0,0,1-1.072-2.706,13.035,13.035,0,0,1-.1-2.114,25.483,25.483,0,0,1-.313-3.636c-.108-1.25-.536-.986,1.459-2.966s2.218-.365,2.218-.365l.793-.3a.6.6,0,0,1,.893.469l1.3,4.994a3.02,3.02,0,0,1,.51.532c.454-1.061,1.5-3.286,2.27-3.178C517.938,132.261,516.267,135.09,516.044,136.418Z" transform="translate(-507.375 -114.751)" fill="#e8b58f"/>
        <path id="Path_10229" data-name="Path 10229" d="M515.723,136.211l-1.2-3.558a3.649,3.649,0,0,1-2.951,2.1,7.253,7.253,0,0,1-3.673-.67l.938,4.183C509.028,138.8,515,139.445,515.723,136.211Z" transform="translate(-505.945 -104.764)" fill="#c5e4e6"/>
        <path id="Path_10230" data-name="Path 10230" d="M511.784,154.462c-.019.231-.019.368-.019.387C511.687,154.83,511.765,154.615,511.784,154.462Z" transform="translate(-495.518 -45.408)" fill="#d18d6d"/>
        <path id="Path_10231" data-name="Path 10231" d="M518.02,139.1a4.511,4.511,0,0,0-1.548,1.28,7.474,7.474,0,0,0-1.284,1.79s2.427,6.595,11.664,8.79l4.056.555-.138-4.265S516.777,145.641,518.02,139.1Z" transform="translate(-486.109 -87.212)" fill="#daf2ff"/>
        <path id="Path_10232" data-name="Path 10232" d="M523.229,146.691c-.339-.473-.681-.942-1.016-1.4a34.323,34.323,0,0,0-4.224-4.053c-.555-.3-1.027-1.18-1.537-1.6a4.657,4.657,0,0,0-3.807-1.183,3.272,3.272,0,0,0-1.3.473,3.438,3.438,0,0,0-1.172,1.768,12.336,12.336,0,0,0-.141,6.818c.439,1.876,1.3,5.869,2.464,7.376a34.078,34.078,0,0,0,4.235,3.863c.495.447.986.9,1.481,1.347a15.052,15.052,0,0,1,2.147,2.237c.309.428.573.893.916,1.3a4.419,4.419,0,0,0,1.611,1.187c.77.327.852.1,1.522-.223a5.733,5.733,0,0,0,2.683-2.881C529.5,156.033,526.445,151.169,523.229,146.691Z" transform="translate(-501.255 -89.141)" fill="#293f40"/>
        <path id="Path_10233" data-name="Path 10233" d="M523.425,167.959a24.156,24.156,0,0,0,2.259-4.321c.931-2.039.093-3.067-.61-5.028-.655-1.846-4.727-13.558-6.092-17.149-.335-.886-3.453-7.652-2.664-8.08a22.829,22.829,0,0,1-3.6,1.608,7.218,7.218,0,0,1-4.879-.372c.2.979,5.117,24.131,5.94,27.581a13.166,13.166,0,0,0,3.588,6.334,4.724,4.724,0,0,0,1.154.889,3.019,3.019,0,0,0,1.846.227A4.576,4.576,0,0,0,523.425,167.959Z" transform="translate(-506.121 -102.782)" fill="#293f40"/>
        <path id="Path_10234" data-name="Path 10234" d="M528.26,152.578s-1.005.674-6.569.629a20.957,20.957,0,0,1-5.679-.64s-.927,4.09.413,5.378,10.8,1.288,11.54-.063S528.26,152.578,528.26,152.578Z" transform="translate(-484.715 -50.565)" fill="#213435"/>
        <path id="Path_10235" data-name="Path 10235" d="M527.255,156.448v.022c-1.146,1.645-3.588,3.859-4.15,3.554-.822-.409-1-4.715-1-4.715a11.431,11.431,0,0,0,2.337-2.1,16.081,16.081,0,0,0,1.656-2.646C526.288,152.86,526.973,154.542,527.255,156.448Z" transform="translate(-467.295 -56.017)" fill="#213435"/>
        <path id="Path_10236" data-name="Path 10236" d="M537.553,174.2c-.889-10.718-1.373-10.622-1.373-10.622s-6.677-7.376-9.058-10.532c-2.356-3.122-5.072-5.143-7.279-8.75s-.473-5.2-.473-5.2H519.1c-2.3.755-4.533,4.607-4.4,5.422.4,2.382,2.133,10.193,2.133,10.193s13.409,11.228,13.915,13.208c1.068,4.209,7.272,22.765,7.272,22.765S538.766,188.8,537.553,174.2Z" transform="translate(-487.458 -87.212)" fill="#213435"/>
      </g>
      <g id="Group_4408" data-name="Group 4408" transform="translate(586.695 368.844)">
        <g id="Group_4406" data-name="Group 4406" transform="translate(9.699 33.271)">
          <path id="Path_10237" data-name="Path 10237" d="M503.825,257.434,524.1,245.681V201.1l-20.277,11.753Z" transform="translate(-473.725 -195.437)" fill="#bcdbed"/>
          <path id="Path_10238" data-name="Path 10238" d="M525.839,261.574l-30.1-17.414V199.577l15.051,6.633,15.051,10.782Z" transform="translate(-495.737 -199.577)" fill="#8bc2e0"/>
        </g>
        <g id="Group_4407" data-name="Group 4407">
          <path id="Path_10239" data-name="Path 10239" d="M505.91,216.074l21.1-12.165h0l-21.1,12.166Z" transform="translate(-458.351 -154.52)" fill="#b4db00"/>
          <path id="Path_10240" data-name="Path 10240" d="M540.693,242.421l-47.562-27.515h0l23.781-20.678,23.781,48.194Z" transform="translate(-493.131 -180.867)" fill="#8bc2e0"/>
          <path id="Path_10241" data-name="Path 10241" d="M544.385,240.018,518.55,190.637,499.521,204h0L523.3,252.191Z" transform="translate(-475.74 -190.637)" fill="#eef5fb"/>
        </g>
      </g>
      <g id="Group_4412" data-name="Group 4412" transform="translate(762.97 270.809)">
        <path id="Path_10242" data-name="Path 10242" d="M550.351,172.377c.052.491.1,1.254.138,2.036a3.11,3.11,0,0,1,.089.458,17.9,17.9,0,0,0,.216,3.42,8.63,8.63,0,0,0,1.556,2.948c2.906,3.714,9.769,9.311,12.415,13.647,1.5,2.453-.778,4.578-2.743,5.787-.395.242,2.936,3.193,2.56,3.3-.688.194-5.359-2.586-5.951-2.988A13.49,13.49,0,0,1,555,197.394a57.33,57.33,0,0,1-3.881-6.773c-3.833-7.834-4.042-8.824-6.379-11.332a6.065,6.065,0,0,1-1.82-2.382,13.675,13.675,0,0,1-.7-2.065,25.4,25.4,0,0,1-1.329-3.517c-.458-1.206-.807-.822.61-3.346s2.1-.982,2.1-.982l.7-.521a.614.614,0,0,1,1.016.212l2.691,4.585a3.456,3.456,0,0,1,.655.383c.149-1.176.558-3.677,1.355-3.785C551.062,167.725,550.2,171,550.351,172.377Z" transform="translate(-540.496 -158.876)" fill="#f8cfb3"/>
        <path id="Path_10243" data-name="Path 10243" d="M544.037,177.984l-1.559-2.747s-1.184-1.727,1.9-3.789,3.681-1.21,3.681-1.21l2.367,3.874Z" transform="translate(-535.712 -148.596)" fill="#daf2ff"/>
        <path id="Path_10244" data-name="Path 10244" d="M563.941,185.113c-2.873-1.131-11.1-10.543-13.312-12.527-.458-.409-1.359-1.745-1.958-1.8a7.946,7.946,0,0,0-.93-.119,6.2,6.2,0,0,0-3.387,1.593c-1.745,1.448-2.542,2.706-1.21,4.592A88.533,88.533,0,0,0,551,186.676c1.518,1.559,3.759,4.518,5.106,6.226a21.073,21.073,0,0,1,2.46,3.163,34.249,34.249,0,0,0,5.571,6.68c1.924,1.954,3.2,3.469,6.007,4.1a7.467,7.467,0,0,0,5.024-.19c2.43-1.243,3.926-4.957,5.393-7.175,1-1.518,1.868-3.2,2.888-4.678A26.246,26.246,0,0,1,587,191.2a5.6,5.6,0,0,0,1.191-4.5c-.339-3.5-2.616-8.638-6.569-9.3a12.167,12.167,0,0,0-7.432,1.254,22.17,22.17,0,0,0-6.241,5.08,4.112,4.112,0,0,1-2.5,1.7A3.464,3.464,0,0,1,563.941,185.113Z" transform="translate(-535.103 -146.96)" fill="#4c4035"/>
        <path id="Path_10245" data-name="Path 10245" d="M556.23,185.606c-.971-.558-2.367-1.124-3.29-1.63a15.925,15.925,0,0,1-6.1-5c-.607-.875-1.377-2.106-2.255-3.524-.339-.558-.688-1.143-1.05-1.76a3.369,3.369,0,0,1,3.141-.357c1.273.461,2.985,4.28,3.878,5.326a31.08,31.08,0,0,0,4.157,3.234,4.7,4.7,0,0,1,.8.6,2.4,2.4,0,0,1,.543,1.671C556.033,184.631,556.368,185.144,556.23,185.606Z" transform="translate(-532.234 -140.311)" fill="#4c4035"/>
        <g id="Group_4409" data-name="Group 4409" transform="translate(1.355 158.536)" style="mix-blend-mode: multiply;isolation: isolate">
          <path id="Path_10246" data-name="Path 10246" d="M540.975,238.029c1.411,8.493,15.486,10.108,31.44,3.606s27.741-18.653,26.334-27.149-15.485-10.1-31.44-3.6S539.564,229.536,540.975,238.029Z" transform="translate(-540.86 -206.894)" fill="#e3dadd" style="mix-blend-mode: multiply;isolation: isolate"/>
        </g>
        <g id="Group_4410" data-name="Group 4410" transform="translate(19.546 41.287)">
          <path id="Path_10247" data-name="Path 10247" d="M549.354,185.979a16.011,16.011,0,0,0,.614,1.984,3.8,3.8,0,0,1,.234.774,3.359,3.359,0,0,1-.048.964c-.212,1.351-.487,2.694-.826,4.016a30.725,30.725,0,0,1-2.814,6.974,5.354,5.354,0,0,0-.752,1.812c-.3,2.144,4.187,4.444,6.5,3.577a1.919,1.919,0,0,0,1.247-1.377c1.057-4.09,6.159-14.626,4.4-18.4-1.206-2.583-.387-2.185-1.667-4.73-1.377-2.724-3.658-4-6.074-5.724-.074-.052-.153-.1-.223-.153.633.454-.469,5.545-.636,6.327A8.728,8.728,0,0,0,549.354,185.979Z" transform="translate(-545.748 -174.543)" fill="#ececec"/>
          <path id="Path_10248" data-name="Path 10248" d="M546.8,181.5c.279.212.547.443.826.644,1.693,1.236,3.614,2.516,4.5,4.488a11.124,11.124,0,0,1,.056,7.9c-.722,2.345-1.8,4.57-2.453,6.937-.2.741-.361,1.5-.629,2.214a6.768,6.768,0,0,1-2.341,3.167,4.545,4.545,0,0,0,2.75.082,1.906,1.906,0,0,0,1.243-1.381c1.06-4.086,7.227-16.52,5.947-19.066-2.073-4.12-5.426-7.1-8.653-10.305-.268-.268-.555-.517-.826-.785A49.391,49.391,0,0,1,546.8,181.5Z" transform="translate(-542.995 -175.389)" fill="#dedede"/>
        </g>
        <path id="Path_10249" data-name="Path 10249" d="M570.69,219.814q.078.268.145.558a11.614,11.614,0,0,1,.294,1.708c.09,1.146.7,2.851-.037,3.893-1.667,2.348-6.74,1.76-9.144,1.3a3.238,3.238,0,0,1-1.038-.32c-.625-.357-.83-1.009-1.5-1.37a4.293,4.293,0,0,0-1.772-.514c-.592-.041-1.128-.305-1.7-.376a3.956,3.956,0,0,0-1.161.141c-.774.1-1.593.194-2.378.227-2.583.1-7-.685-8.816-2.557a6.072,6.072,0,0,1-1.37-4.619c.242-2.94,5.095-3.439,7.436-3.736,2.4-.305,5.921-.51,7.834-2.2,1.6-1.414,5.385,1.783,6.557,2.654,1.195.889,2.334,2.248,3.819,2.5A3.311,3.311,0,0,1,570.69,219.814Z" transform="translate(-535.882 -35.565)" fill="#402313"/>
        <path id="Path_10250" data-name="Path 10250" d="M549.647,213.827c-2.341.3-7.194.8-7.436,3.736a7.583,7.583,0,0,0,.063,1.582c.119.112,2.289,1.987,7.454,1.1,5.322-.912,6.174-2.039,6.174-2.039a2.09,2.09,0,0,0,1.585-2.538,13.327,13.327,0,0,1-.126-3.956C555.427,213.313,552,213.529,549.647,213.827Z" transform="translate(-535.877 -35.242)" fill="#613a25"/>
        <path id="Path_10251" data-name="Path 10251" d="M554.182,207.005a4.7,4.7,0,0,0-2.672.19c-3.483,1.492-2.1,6.182.2,8.05a12.092,12.092,0,0,1,2.639,3.383c.558.99.588,2.11,1.139,3.115a5.711,5.711,0,0,0,5.4,2.717,9.541,9.541,0,0,0,4.194-1.176,3.577,3.577,0,0,0,1.924-2.352,3.121,3.121,0,0,0,.056-.834,29.01,29.01,0,0,0-.421-4.131c-.32-1.812-2.81-.8-3.937-1.92a18.922,18.922,0,0,0-2.921-2.542c-.956-.622-1.433-1.879-2.207-2.713a6.109,6.109,0,0,0-3.294-1.768Z" transform="translate(-516.259 -48.343)" fill="#402313"/>
        <path id="Path_10252" data-name="Path 10252" d="M569.753,198.367c-.212-2.721-.774-2.348-1.351-5.017-.242-1.117-1.738-.421-2.583-1.183a1.716,1.716,0,0,0-2.739.16c-.458.484-1.459-4.607-1.849-4.131-3.431,4.228-6.61,14.042-9.773,18.474-1.574,2.207-1.917,2.758-1.92,5.381,0,3.126-.45,6.245-.395,9.408.03,1.82.112,3.636.223,5.452.257,4.239,1.492,19.457,2.073,23.662q.614,4.432,1.463,8.824c.543,2.81.551,6.156,2.464,8.5a8.774,8.774,0,0,0,6.42,3.059c2.1.019,3.6-1.224,4.95-2.683,1.593-1.708.819-3.528.722-5.553a52.294,52.294,0,0,0-.767-6.732c-1.519-6.625-1.533-30.3-1.262-32.3C566.039,219.193,570.784,211.605,569.753,198.367Z" transform="translate(-516.977 -99.332)" fill="#9c8049"/>
        <path id="Path_10253" data-name="Path 10253" d="M553.659,191.078c-1.169.171-8.128-.354-8.2,1.068-.227,4.775-1.105,21.131-1.206,25.91-.16,7.406,2.047,23.312,3.089,30.674.834,5.914,1.47,11.865,2.207,17.793.22,1.749.454,3.5.778,5.233.242,1.28.1,3.506.856,4.57a3.242,3.242,0,0,0,1.265.96c2.639,1.284,5.694,1.28,8.627,1.224a3.39,3.39,0,0,0,3.424-2.058l.015.112a3.519,3.519,0,0,0,.231-.633c.856-3.506-.264-7.953-.536-11.511-.324-4.265-.923-8.5-1.44-12.743-.264-2.166-.506-4.332-.685-6.505-.123-1.526-.588-2.933-.346-4.451.722-4.529,1.351-11.5,2.2-16,.469-2.471.722-6.673,1.939-8.876,1.091-1.98,7.812-8.779,4.905-25.549C570.789,190.3,557.429,190.527,553.659,191.078Z" transform="translate(-530.28 -93.531)" fill="#ac9056"/>
        <path id="Path_10254" data-name="Path 10254" d="M562.273,179.2a8.2,8.2,0,0,0-3.044-4.719c-2.866-2.434-6.755-.733-6.755-.733-.889.26-1.28,1.507-1.3,3.383,1.719.212,3.718-.458,5.311-.592a7.35,7.35,0,0,1,5,1.905C561.77,178.665,562,178.955,562.273,179.2Z" transform="translate(-511.443 -140.151)" fill="#83c2bf"/>
        <path id="Path_10255" data-name="Path 10255" d="M573.06,252.08c-2.959,1.042-3.945.473-7.023,1-2.728.465-5.568.127-8.325.38-1.667.156-3.74-.662-5.326-1.131a25.512,25.512,0,0,1-8.325-3.885,1.037,1.037,0,0,1-.391-.45,1.1,1.1,0,0,1,.059-.644,27.876,27.876,0,0,0,.8-4.641l.462-3.99c.644-5.549,1.69-11.195,1.868-16.762.182-5.683-.4-11.362-.1-17.041.119-2.33.878-5.262.361-7.54-.491-2.173-1.4-3.915-.867-6.267.372-1.634,1.467-2.482,2.36-3.774a35.223,35.223,0,0,1,7.953-7.815,45.521,45.521,0,0,0,4.321-3.152,12.659,12.659,0,0,1,4.083-3.026,8.7,8.7,0,0,1,3.562-.167,21.794,21.794,0,0,0,2.91-.357,12.818,12.818,0,0,1,6.558,1.161,11.861,11.861,0,0,1,5.72,4.957c2.132,3.934,2.266,8.549,2.181,12.918-.1,5.233-1.031,10.335-1.2,15.508-.223,6.77.335,13.405.722,20.164.3,5.274.789,10.5,1.6,15.768a1.745,1.745,0,0,1-.651,2c-1.284,1.217-5.917,3.327-7.372,4.109-1.213.651-4.012-10.915-4.012-10.915S574.113,251.707,573.06,252.08Z" transform="translate(-531.936 -141.284)" fill="#55483a"/>
        <path id="Path_10256" data-name="Path 10256" d="M553.737,180.367a2.236,2.236,0,0,0-1.131-1.139,2.193,2.193,0,0,0-2.036.726c-2.013,1.846-2.9,4.507-3.777,7.142-.011.115-.03.246-.037.361-.294,5.679.286,11.358.1,17.041-.178,5.568-1.224,11.213-1.868,16.762l-.462,3.989a27.876,27.876,0,0,1-.8,4.641,1.1,1.1,0,0,0-.059.644,1.038,1.038,0,0,0,.391.45,16.946,16.946,0,0,0,8.124,3.338c.275-3.774.532-7.551.793-11.325.227-3.283,1.459-6.569,1.958-9.87a77.177,77.177,0,0,0,.584-17.987C555.1,190.193,556.312,184.982,553.737,180.367Z" transform="translate(-531.936 -123.83)" fill="#45392e"/>
        <path id="Path_10257" data-name="Path 10257" d="M563.432,198.664c-.294-5.136-.681-10.2-.755-15.311-.056.074-.1.153-.164.223-2.59,3.193-6.662,6.587-10.949,7.678A120.993,120.993,0,0,0,553,209.628s2.8,11.567,4.012,10.915c1.455-.781,6.092-2.892,7.376-4.109a1.759,1.759,0,0,0,.651-2C564.224,209.166,563.737,203.937,563.432,198.664Z" transform="translate(-510.399 -112.427)" fill="#524539"/>
        <g id="Group_4411" data-name="Group 4411" transform="translate(21.001)">
          <path id="Path_10258" data-name="Path 10258" d="M546.359,179.223a4.509,4.509,0,0,0-.22.417l3.1-2.408a3.8,3.8,0,0,0-1.656.67C547.166,178.326,546.757,178.769,546.359,179.223Z" transform="translate(-546.139 -129.086)" fill="none"/>
          <path id="Path_10259" data-name="Path 10259" d="M563.656,177.955c.1.275.376.462.476.711a1.489,1.489,0,0,1-.063.871,5.863,5.863,0,0,1-.9,1.682,12.426,12.426,0,0,1-2.025,2.345,7.841,7.841,0,0,1-3.774,1.4,43.281,43.281,0,0,1-9.963.156,21.207,21.207,0,0,0,3.029-12.568,1.277,1.277,0,0,1,.16-.934,1.173,1.173,0,0,1,.6-.327c3.022-.923,10.368-1.254,12.233,2.2.57,1.053.075,2.293.089,3.5A2.861,2.861,0,0,0,563.656,177.955Z" transform="translate(-542.677 -146.959)" fill="#deb08a"/>
          <path id="Path_10260" data-name="Path 10260" d="M553.92,179.864c.807-.324,1.563-.767,2.367-1.109a12.281,12.281,0,0,0,2.2-1.009,5.483,5.483,0,0,0,1.95-2.75,2.646,2.646,0,0,0,.127-1.831,1.524,1.524,0,0,0-.5-.662,8.15,8.15,0,0,1-.677,1.224,5.345,5.345,0,0,1-.614.856,5.206,5.206,0,0,1-.8.659,20.366,20.366,0,0,1-7.332,3.32,14.194,14.194,0,0,1-1.6.082c-.257.034-.342.368-.38.625a.916.916,0,0,0,.182.789c.5.476,1.463.4,2.1.432A7.463,7.463,0,0,0,553.92,179.864Z" transform="translate(-539.297 -141.957)" fill="#daf2ff"/>
          <path id="Path_10261" data-name="Path 10261" d="M550.262,180.73a8.753,8.753,0,0,0,4.474,1.336c1.589.074,13.435-.491,13.945-7.953.033-.488-.54-.83-.849-1.21a1.877,1.877,0,0,0-.793-.487c-.13.607.112,1.2-.149,1.8a4.662,4.662,0,0,1-1.381,1.5,14.143,14.143,0,0,1-6.785,3.156,12.375,12.375,0,0,1-2.222.424,15.477,15.477,0,0,1-1.611-.071,6,6,0,0,1-.774-.134,1.007,1.007,0,0,1-.476-.316,1.754,1.754,0,0,0-.48-.294,3.1,3.1,0,0,1-1.027-.8,3.024,3.024,0,0,1-.45-1c-.008-.022-.015-.048-.037-.056s-.045.011-.063.026a43.322,43.322,0,0,0-5.407,6.133,9.212,9.212,0,0,1,.927-.5C548.636,181.642,550.262,180.73,550.262,180.73Z" transform="translate(-546.038 -142.194)" fill="#63584e"/>
          <path id="Path_10262" data-name="Path 10262" d="M554.5,177.236c-.1-.007-.216-.026-.275-.026-.138,0-.264-.037-.4-.037-.335,0-.67,0-1-.019a4.442,4.442,0,0,1-1.891-.476c-1.191-.666-1.351-2.5-1.957-3.565-.03-.056-.086-.119-.145-.1a.169.169,0,0,0-.075.086c-.32.681-.614,1.37-.912,2.058-.365.856-.294,1.236.528,1.775a6.79,6.79,0,0,0,2.1.774,5.207,5.207,0,0,0,1.046.145,4.756,4.756,0,0,0,.949.03c.305-.041.607-.112.912-.167a4.22,4.22,0,0,0,.432-.093,4.951,4.951,0,0,0,.927-.394A.505.505,0,0,1,554.5,177.236Z" transform="translate(-542.08 -140.582)" fill="#daf2ff"/>
          <path id="Path_10263" data-name="Path 10263" d="M561.08,177.325a11.752,11.752,0,0,1-2.453,9.39c-1.027,1.37.506,4.079-1.124,4.607a10.475,10.475,0,0,1-5.914.316,27.5,27.5,0,0,1-4.1-1.176,3.736,3.736,0,0,1-.96-2.858c-.145-3.346-.551-8.392.722-11.489.469-1.146,1.12-2.207,1.589-3.353.666-1.608.491-7.73,3.208-7.272C557.749,166.443,560.395,172.122,561.08,177.325Z" transform="translate(-545.564 -161.11)" fill="#df9876"/>
          <path id="Path_10264" data-name="Path 10264" d="M572.439,176.691c1.131,3.364-.231,10.5-2.613,13.375a14.1,14.1,0,0,1-3.629,3c-1.489.9-2.24.893-3.472,2.073a2.871,2.871,0,0,1-1.321.629,10.064,10.064,0,0,1-7.853-1.358c-.5-.327-1.623-.983-1.7-1.645a1.792,1.792,0,0,1,.112-.722,4.616,4.616,0,0,1,.554-1.332,3.244,3.244,0,0,1,1.18-1,4.746,4.746,0,0,0,.916-.38,2.633,2.633,0,0,0,.476-2.687,2.269,2.269,0,0,0-1.727-1.478,2,2,0,0,0-1.846.6,11.819,11.819,0,0,0-1.5,1.76c-.54-.186-.908-.681-1.411-.949a6.185,6.185,0,0,1,.339-1.262,18.769,18.769,0,0,0,.714-3.532,15.94,15.94,0,0,0,.149-2.058,3.664,3.664,0,0,0-.379-2.043c-.2-.268-.506-.45-.692-.737-.655-1-.246-2.426-.558-3.543-.22-.793-.543-1.552-.7-2.359a5.143,5.143,0,0,1,.6-3.982c2.564-3.558,10.331-3.152,13.416-1.7C566.231,167.588,570.764,171.7,572.439,176.691Z" transform="translate(-542.889 -164.295)" fill="#4f2900"/>
        </g>
        <path id="Path_10265" data-name="Path 10265" d="M550.218,213.939a4.308,4.308,0,0,1-1.027-.867c-2.661-2.8-5.851-7.015-5.914-11.016-.194-9.457.063-10.5-1.068-14.049-.19-.584-.4-1.079-.536-1.567a3.353,3.353,0,0,0-.1-.342,3.261,3.261,0,0,1-.052-.863,1.235,1.235,0,0,1,0-.391,22.751,22.751,0,0,1,.253-2.352,32.181,32.181,0,0,1,.324-4.053c.115-1.381-.413-1.169,2.147-3.007,2.542-1.812,2.49.019,2.49.019l.923-.216a.684.684,0,0,1,.915.7l.543,5.705c.164.212.305.439.469.688.648-1.087,2.229-3.342,3.044-3.093,1.076.331-1.269,3.163-1.723,4.57-.182.5-.506,1.277-.826,2.054a1.994,1.994,0,0,1-.127.484,19.3,19.3,0,0,0-1.355,3.461,9.052,9.052,0,0,0,.175,3.617,60.42,60.42,0,0,0,2.5,7.607c.994,2.7,2.65,5.873,2.523,8.8C553.712,211.81,552.949,215.417,550.218,213.939Z" transform="translate(-537.758 -136.166)" fill="#f8cfb3"/>
        <path id="Path_10266" data-name="Path 10266" d="M548.909,179.476l-.3,3-6.836,2.412.044-4.745S543.167,177.3,548.909,179.476Z" transform="translate(-537.015 -125.216)" fill="#daf2ff"/>
        <path id="Path_10267" data-name="Path 10267" d="M562.448,181.4a2.489,2.489,0,0,1-.026.428c-.216,3.331-.108,6.688-.454,10.022a42.38,42.38,0,0,1-1.038,5.411c-.186.692-.346,1.384-.506,2.051a35.786,35.786,0,0,1-2.267,7.41c-.934,2.028-2.694,6.241-4.239,9.68a45.7,45.7,0,0,1-2.639,5.329,5.631,5.631,0,0,1-3.547,1.626c-1.038-.078-2.4-1.388-3.037-2.132a11.337,11.337,0,0,1-1.146-1.6c-.294-.506-.562-1.038-.826-1.544-.8-1.626-1.76-3.335-1.44-5.225a6.531,6.531,0,0,1,1.946-3.6c.454-.294.744-.082,1.146-.588a6,6,0,0,0,.506-1.7c.48-1.652.93-3.331,1.358-4.983,1.76-6.665,3.171-13.409,4.611-20.153.4-1.92,2-3.041,3.465-4.347C557.275,174.787,562.288,177.85,562.448,181.4Z" transform="translate(-538.526 -131.208)" fill="#574a3e"/>
        <path id="Path_10268" data-name="Path 10268" d="M543.832,180.922a6.084,6.084,0,0,0-.5,1.961c-.35,2.6-.692,5.2-1.05,7.8a60.928,60.928,0,0,0-.983,6.427c-.1,2.929-.662,6.1.175,8.936.134.461.536,2.207,1.124,2.162s.737-1.314.863-1.7c1.589-4.89,2.81-9.814,4.436-14.686.264-.867.495-1.749.7-2.639.365-1.608.644-3.234.893-4.864.123-.815.242-1.626.361-2.441a20.492,20.492,0,0,1,.528-2.3c.007-.03.015-.067-.056-.141-.234-.119-.51-.007-.763-.045-.272-.037-.543-.086-.815-.123a10.277,10.277,0,0,0-1.622-.108,4.078,4.078,0,0,0-2.88,1.183A2.462,2.462,0,0,0,543.832,180.922Z" transform="translate(-539.073 -123.841)" fill="#45392e"/>
        <path id="Path_10269" data-name="Path 10269" d="M552.215,188.369a45.7,45.7,0,0,1-2.639,5.329,5.631,5.631,0,0,1-3.547,1.626c-1.038-.078-2.4-1.388-3.037-2.132a11.333,11.333,0,0,1-1.146-1.6S545.337,183.356,552.215,188.369Z" transform="translate(-536.822 -103.179)" fill="#63584e"/>
      </g>
      <g id="Group_4416" data-name="Group 4416" transform="translate(458.753 266.876)">
        <path id="Path_10270" data-name="Path 10270" d="M459.028,221.758C461.2,231.125,475.6,240.682,491.2,243.1s26.48-3.212,24.31-12.579-16.576-18.921-32.17-21.34S456.859,212.39,459.028,221.758Z" transform="translate(-458.753 -39.728)" fill="#e3dadd" style="mix-blend-mode: multiply;isolation: isolate"/>
        <g id="Group_4414" data-name="Group 4414" transform="translate(5.545 29.158)">
          <path id="Path_10271" data-name="Path 10271" d="M460.265,182.909a11.931,11.931,0,0,0,.331,2.9,9.887,9.887,0,0,0,.569,1.82,3.5,3.5,0,0,0,.171.391,33.173,33.173,0,0,0,1.511,3.32c.495.979,1.02,1.917,1.567,2.862,4.09,7.134,4.745,7.8,5.493,10.949.123.521.186.983.305,1.41.026.1.056.175.082.275l-.008.022a2.95,2.95,0,0,0,.35.666,1.1,1.1,0,0,0,.171.294,18.935,18.935,0,0,0,1.243,1.638,27.936,27.936,0,0,0,2.054,2.877c.707.979.216,1.057,2.948,1.28,2.709.212,1.85-1.128,1.85-1.128l.785-.253a.594.594,0,0,0,.368-.93l-2.151-4.5c.026-.231.03-.465.041-.722.968.517,3.16,1.489,3.655.938.655-.726-2.363-1.786-3.331-2.635-.361-.29-.949-.726-1.537-1.157a1.593,1.593,0,0,0-.309-.305,16.921,16.921,0,0,1-2.561-1.972,7.857,7.857,0,0,1-1.489-2.773c-1.392-4.19-2.129-12.452-4.12-16.818l0-.022a.023.023,0,0,1-.015-.03,1.506,1.506,0,0,0-.194-.3c-1.172-2.069-3.774-1.481-5.679-.629-.026.019-.078.03-.1.048a5.741,5.741,0,0,1-.886.279c0,.022-.026.015-.026.015a2.337,2.337,0,0,0-.729.313c0,.022-.022,0-.026.019-.034.041-.086.074-.1.119C460.146,181.614,460.258,182.295,460.265,182.909Z" transform="translate(-460.243 -147.875)" fill="#f6c09c"/>
          <g id="Group_4413" data-name="Group 4413" transform="translate(0.016)">
            <path id="Path_10272" data-name="Path 10272" d="M460.67,173.67a2.958,2.958,0,0,1,.108-.287l-.011.153Z" transform="translate(-459.097 -164.788)" fill="#f6c09c"/>
            <path id="Path_10273" data-name="Path 10273" d="M460.253,204.95a44.646,44.646,0,0,1,.8-9.639,23.561,23.561,0,0,0,.651-5.344.7.7,0,0,0,.011-.134l.007-.756c.034-1.31.041-2.631.041-3.9,0-.521.019-1.057.015-1.574a20.593,20.593,0,0,1,.394-4.95,15.031,15.031,0,0,1,1.917-4.135,11.044,11.044,0,0,1,1.634-2.039,5.206,5.206,0,0,1,2.166-1.221,7.253,7.253,0,0,1,3.941.287c.008.294-.138.566-.145.863a13.023,13.023,0,0,0,.167,1.358,35.565,35.565,0,0,1-.093,6.234c-.153,1.9-.048,3.7-.06,5.608.008,6.029-1.47,11.634-3.037,17.406a9.1,9.1,0,0,0-.54,2.493,20.166,20.166,0,0,0,.171,2.758c.019.078.108.577.171,1.139a8.408,8.408,0,0,1,.2,1.79c-1.407.707-4.7,1.92-6.435,1.031.145.618.331,1.269.5,1.891a1.874,1.874,0,0,1,.1.421,33.183,33.183,0,0,1-1.511-3.32,3.472,3.472,0,0,1-.171-.391,9.883,9.883,0,0,1-.569-1.82A17.554,17.554,0,0,1,460.253,204.95Z" transform="translate(-460.247 -171.073)" fill="#213435"/>
            <path id="Path_10274" data-name="Path 10274" d="M460.576,184.258s3.725,8.359,5.955,11.738,6.617-1.652,6.617-1.652l-7.264-13.23Z" transform="translate(-459.353 -143.749)" fill="#213435"/>
          </g>
        </g>
        <g id="Group_4415" data-name="Group 4415" transform="translate(10.439 167.828)">
          <path id="Path_10275" data-name="Path 10275" d="M461.714,208.356a1.29,1.29,0,0,0-.156.089c.033-.026.022-.078.041-.112C461.64,208.338,461.673,208.353,461.714,208.356Z" transform="translate(-461.558 -208.334)" fill="#e6ab81"/>
        </g>
        <path id="Path_10276" data-name="Path 10276" d="M469,191.789c-2.237.983-3.45,2.966-5,4.708a8.686,8.686,0,0,0-2.148,6.252,68.071,68.071,0,0,0,1.69,11.883c.525,2.24,2.073,7.4,1.7,9.725a41.122,41.122,0,0,1-1.3,4.06,20.527,20.527,0,0,0-1.076,5.005c-.086,6.49,1.567,11.861,1.794,14.4.227,2.564-.13,4.4.045,6.963a3.394,3.394,0,0,0,3.242,3.42c.971.086,5.434,6.822,14.347,3.707.61-.212-2.922-3.059-3.51-3.424-1.28-.793-4.138-1.775-4.06-3.093.138-2.293.417-4.607.644-6.911.264-2.642,1.522-16.647,2.24-20.331.707-3.621,1.853-7.127,2.568-10.744a83.833,83.833,0,0,0,.982-11.76q.056-1.128.1-2.259c.048-1.478.078-2.959.015-4.436-.086-2.129.7-3.807-1.15-5.471a8.6,8.6,0,0,0-3.182-1.656A11.321,11.321,0,0,0,469,191.789Z" transform="translate(-450.333 -87.455)" fill="#e8b58f"/>
        <path id="Path_10277" data-name="Path 10277" d="M461.631,188.743s-2.259,7.291,1.652,22.43,4.537,16.639,4.317,19.553-3.859,4.563-1.835,16.267c1.593,9.181,1.329,9.222,1.329,9.222a13.555,13.555,0,0,0,5.958,5.113c4.224,1.95,5.448.435,5.448.435s.547-18.195,2.188-23.945,4.124-34.146,4.034-40.078S461.631,188.743,461.631,188.743Z" transform="translate(-452.687 -93.825)" fill="#2c2c2c"/>
        <path id="Path_10278" data-name="Path 10278" d="M463.5,207.829s-2.1,1.243-.811,7.674a53.113,53.113,0,0,1,.848,9.914c.61.971,1.905.216,1.905.216l.536-8.039,1.083-.424c.488,1.254,2.058,6.01,3.1,5.973a22.3,22.3,0,0,0,10.506-2.9c1.943-1.195,4.068-2.114,4.41-3.45a2.89,2.89,0,0,0-1.965-3.476l-5.649-1.384s1.444.912-.007,2.2c-.871.77-3.3.618-5.069-.074-3.521-1.381-6.412-2.512-8.229-4.347A3.425,3.425,0,0,1,463.5,207.829Z" transform="translate(-449.188 -41.88)" fill="#1e1a19"/>
        <path id="Path_10279" data-name="Path 10279" d="M472.346,230.931a15.9,15.9,0,0,1,.458,6.58,29.8,29.8,0,0,1-1.321,4.544,31.886,31.886,0,0,0-.979,13.7c.573,4.607,1.63,9.14,1.976,13.777.216,2.884-1.3,10.227,2.665,10.581.968.089,3.2,6.435,9.885,7.157.64.067,3.718-6.2,3.055-6.4-4.682-1.463-6.141-6.557-6.063-7.879.138-2.289.417-4.607.644-6.911q.4-3.958.956-7.9c.528-3.711,1.053-7.428,1.775-11.109.707-3.621,1.853-7.131,2.564-10.744a83.863,83.863,0,0,0,.986-11.76c.037-.752.067-1.507.1-2.259.049-1.477.074-2.959.015-4.436q-.3-7.3-.789-14.585c-.1-1.448-.141-2.9-.167-4.351-.041-2.4-.019-4.793-.067-7.19-.034-1.745-.141-2.56-2.133-2.263-1.2.182-2.088,1.072-3.353,1.195a16.691,16.691,0,0,1-3.606-.089c-3.908-.491-7.544-2.181-11.463-2.639-1.027-.119-2.493-.424-3.189.566-.413.588-.216,1.548-.294,2.214a29.97,29.97,0,0,1-.674,3.022c-1,4.548-.06,9.2.83,13.688.819,4.112,1.578,8.954,3.629,12.665A54.569,54.569,0,0,1,472.346,230.931Z" transform="translate(-447.478 -96.382)" fill="#f1bc95"/>
        <path id="Path_10280" data-name="Path 10280" d="M489.323,193.006s.376,32.207,0,38.1-5.508,22.378-5.616,31.347l-.108,8.965s-1.116,3.394-5.575,1.381-5.314-3.148-5.314-3.148-2.259-10.636-2.293-18.85c-.033-8.34,3.044-12.653,1.016-20.272s-11.276-23.439-7.879-36.662S489.323,193.006,489.323,193.006Z" transform="translate(-447.707 -96.506)" fill="#383838"/>
        <path id="Path_10281" data-name="Path 10281" d="M466.357,211.53s-2.1,1.243-.811,7.674a52.75,52.75,0,0,1,.849,9.914c.61.971,1.905.216,1.905.216l.536-8.039,1.087-.424c.488,1.254,2.058,6.01,3.1,5.973a22.328,22.328,0,0,0,10.5-2.9c1.946-1.2,4.071-2.118,4.41-3.454a2.89,2.89,0,0,0-1.965-3.476l-5.65-1.384s1.444.912,0,2.2c-.871.77-3.3.618-5.069-.074-3.524-1.381-6.412-2.516-8.232-4.347A3.466,3.466,0,0,1,466.357,211.53Z" transform="translate(-441.403 -31.808)" fill="#1e1a19"/>
        <path id="Path_10282" data-name="Path 10282" d="M465.216,173.329a14.258,14.258,0,0,0-2.761,4.991c-.551,1.637-.45,3.145-.793,4.786a40.222,40.222,0,0,0-.971,11.853,98.2,98.2,0,0,0,1.384,9.769q.5,2.579,1.139,5.132a27.965,27.965,0,0,1,1.12,4.522,84.434,84.434,0,0,1-.283,10.216,62.429,62.429,0,0,1-1.407,11.835,19.778,19.778,0,0,0-.729,3.439c-.171,2.378,3.16,3.971,5.009,4.987a37.362,37.362,0,0,0,7.51,3.041c4.4,1.284,9.572,2.311,14.135,1.284a31.842,31.842,0,0,0,10.424-4.116c-.968-3.268-6.513-43.584-5.936-46.669a32.943,32.943,0,0,0,.435-4.529c.022-.737.071-1.474.115-2.211.048-1.47.138-2.944.208-4.418a15.236,15.236,0,0,0,.2-2.3c-.067-.99-.964-1.332-1.172-2.185a9.967,9.967,0,0,0-.16-1.611c-.726-1.939-3.014-3.07-4.786-3.863-.406-.182-.822-.35-1.224-.543-.506-.242-.994-.521-1.478-.8-.733-.421-1.466-.942-2.177-1.433a15.735,15.735,0,0,0-2.378-1.31A17.364,17.364,0,0,0,478.539,172c-1.243-.387-2.635-.063-3.908-.171-1.221-.115-2.3-.711-3.543-.759a3.78,3.78,0,0,0-.875.022,4.507,4.507,0,0,0-1.057.368C467.891,171.989,466.135,172.294,465.216,173.329Z" transform="translate(-453.798 -141.965)" fill="#2e4142"/>
        <path id="Path_10283" data-name="Path 10283" d="M475.271,169.577s-.008,8.433-.008,8.485a2.382,2.382,0,0,1-1.891,2.151,13.557,13.557,0,0,1-4.488.007,8.713,8.713,0,0,1-3.271-1.169,5.012,5.012,0,0,1-2.307-3.134,22.453,22.453,0,0,1,0-3.5Z" transform="translate(-446.581 -145.988)" fill="#f6c09c"/>
        <path id="Path_10284" data-name="Path 10284" d="M466.361,173.072c.126-.227.264-.447.409-.659a.828.828,0,0,1,.413-.361c.182-.052.1-.316.272-.238a15.646,15.646,0,0,1,1.63.923c.64.372,1.012.774.4,1.5a2.607,2.607,0,0,1-.4.357,1.992,1.992,0,0,1-1.958.581,1.9,1.9,0,0,1-.722-.454,1.184,1.184,0,0,1-.335-.77A1.756,1.756,0,0,1,466.361,173.072Z" transform="translate(-438.828 -139.937)" fill="#f6c09c"/>
        <path id="Path_10285" data-name="Path 10285" d="M469.032,177.24a3.718,3.718,0,0,0,.983.067,5.952,5.952,0,0,1,2.419.77,9.606,9.606,0,0,0,3.7.484,12.443,12.443,0,0,0,3.885-.666,16.8,16.8,0,0,0-3.283-3.3s-1.031,1.288-4.537.722c-1.038-.167-2.04-.294-3.063-.532a9.435,9.435,0,0,1-4.406-3c-.294-.342-.51-1.072-1.042-1.012-.6.071-.74.908-.618,1.37a3.357,3.357,0,0,0,1.154,1.556,41.808,41.808,0,0,0,3.8,3.029A2.89,2.89,0,0,0,469.032,177.24Z" transform="translate(-447.115 -142.735)" fill="#daf2ff"/>
        <path id="Path_10286" data-name="Path 10286" d="M468.562,198.365c.737,8.236,1.909,28.589,1.288,36.8a31.841,31.841,0,0,0,10.424-4.116c-.968-3.268-6.513-43.584-5.936-46.669a32.952,32.952,0,0,0,.435-4.529c.022-.737.071-1.474.115-2.211-2.624-1.932-6.625-2.393-7.153,1.7C466.932,185.369,468.034,192.317,468.562,198.365Z" transform="translate(-435.079 -127.946)" fill="#213435"/>
        <path id="Path_10287" data-name="Path 10287" d="M470.575,184.785a3.725,3.725,0,0,0-.022,1.169c.316,3.346,1.254,7.845,3.841,10.171,6.085,5.53,6.915,5.958,8.6,8.727.275.458.477.878.722,1.247.052.089.108.153.164.261a2.78,2.78,0,0,0,.536.528,1.182,1.182,0,0,0,.253.227,19.338,19.338,0,0,0,1.686,1.176,26.818,26.818,0,0,0,2.843,2.1c.971.715.529.941,3.2.313,2.642-.629,1.41-1.641,1.41-1.641l.67-.48a.6.6,0,0,0,.063-1l-3.428-3.617c-.045-.227-.112-.45-.182-.7,1.079.2,3.461.45,3.766-.227.4-.893-2.8-.975-3.982-1.485-.432-.164-1.124-.4-1.816-.629a1.589,1.589,0,0,0-.391-.193,16.815,16.815,0,0,1-3.041-1.09,7.827,7.827,0,0,1-2.27-2.181,52.442,52.442,0,0,1-3.554-5.992c-1.2-2.2-2.337-5.091-4.324-6.68C473.965,183.713,471.167,182.15,470.575,184.785Z" transform="translate(-426.734 -108.535)" fill="#f8cfb3"/>
        <path id="Path_10288" data-name="Path 10288" d="M469.948,173.351s7.168-1.463,9.8,11.053a133.892,133.892,0,0,1,2.747,18.869l10.722,21.366s1.105,3.923-1.061,5.434-3.692.64-3.692.64c-2-2.278-3.893-4.656-5.716-7.075-1.593-2.114-3.126-4.276-4.529-6.52-.99-1.585-2.315-3.219-2.721-5.054-.443-2.017-.953-4.034-1.489-6.044q-1.217-4.572-2.434-9.14c-.51-1.909-1.154-3.733-1.638-5.679a111.133,111.133,0,0,1-2.687-11.4A7.357,7.357,0,0,1,469.948,173.351Z" transform="translate(-435.75 -135.858)" fill="#293f40"/>
        <path id="Path_10289" data-name="Path 10289" d="M464.124,170.921l.149-.037c.834-.234.849.4,1.243.99a9.394,9.394,0,0,0,2.754,2.508c1.009.67,9.114,4.719,13.022,2.036,1.608.871,2.423,1.258,3.99,2.207-3.256,2.237-8.917,1.388-12.136.845a16.367,16.367,0,0,1-6.468-2.5c-1.664-1.135-3.558-2.765-4.075-4.782a.735.735,0,0,1,.1-.737A4.717,4.717,0,0,1,464.124,170.921Z" transform="translate(-448.415 -142.568)" fill="#213435"/>
        <path id="Path_10290" data-name="Path 10290" d="M470.455,189.884a24.121,24.121,0,0,0,7.76-1.541c1.057-.394,2.519-1.12,2.936-2.248a3.637,3.637,0,0,0,.156-1.135q.061-1.937.123-3.874a14.586,14.586,0,0,1,.063-1.671c.082-.543.29-1.072.372-1.623a6.414,6.414,0,0,0-.551-3.212,5.939,5.939,0,0,1-.409-1.384c-.164-1.128-.421-2.266-.555-3.387-.179-1.541-.048-3.658-1.548-4.645a3.739,3.739,0,0,0-1.507-.45,12.148,12.148,0,0,0-3.893-.212,14.067,14.067,0,0,0-6.1,3.3,13.41,13.41,0,0,0-4.123,5.434,11.616,11.616,0,0,0-.6,4.291,32.483,32.483,0,0,0,.428,4.071c.149,1,.305,2,.521,2.985a4.032,4.032,0,0,0,.878,2.207c1.143,1.09,1.749,2.4,3.394,2.862A8.445,8.445,0,0,0,470.455,189.884Z" transform="translate(-448.345 -160.06)" fill="#f8cfb3"/>
        <path id="Path_10291" data-name="Path 10291" d="M478.939,180.177a.55.55,0,0,1-.35.034c-.394-.112-.655-.916-.942-1.2a1.921,1.921,0,0,0-2.847.409c-.6.856-.294,1.976-.16,2.925a10.705,10.705,0,0,1,.06,3.74,4.357,4.357,0,0,1-1.623,2.557c-.815.767-1.671,2.177-2.821,2.449a2.211,2.211,0,0,1-1.76-.439,8.7,8.7,0,0,1-1.411-1.693,25.377,25.377,0,0,1-2.181-2.572,19.71,19.71,0,0,1-1.529-3.152,12.024,12.024,0,0,1-.837-2.419,19.8,19.8,0,0,0-.648-2.75,10.748,10.748,0,0,1-.539-3.275,7.39,7.39,0,0,1,.059-1.113,11.933,11.933,0,0,1,7.034-8.85,20.9,20.9,0,0,1,5.664-1.448c2.925-.435,6.152.071,7.987,2.62a5.508,5.508,0,0,1,.752,1.6,2.644,2.644,0,0,1,.056,2.259c-.826,1.239-1,2.836-1.481,4.22-.413,1.206-1.3,2.229-1.548,3.495-.1.525.16,1.012.037,1.5A2.01,2.01,0,0,1,478.939,180.177Z" transform="translate(-451.689 -163.238)" fill="#5d270e"/>
        <path id="Path_10292" data-name="Path 10292" d="M463.588,175.807c.149-.763-.272-.748-.767-1.161-.9-.744-1.824-2.036-1.31-3.253.086-.208,1.068-.912,1.143-.491a2.889,2.889,0,0,1,.082-1.987,1.777,1.777,0,0,1,1.887-.3c.045.019.633.543.64.528a1.782,1.782,0,0,1,2.427-.916,2.817,2.817,0,0,1,1.623,1.9c-.048-.208.752-.194.86-.186a1.378,1.378,0,0,1,1.094.566A3.1,3.1,0,0,1,472,173.47a3.563,3.563,0,0,1-.246.387c.294.06.688.633.822.927a5.115,5.115,0,0,1,.584,1.79,2.331,2.331,0,0,1-.35,1.4,4.669,4.669,0,0,1-1.414,1.347,6.594,6.594,0,0,1-3.978.726,4.976,4.976,0,0,1-3.13-1.5,3.283,3.283,0,0,1-.811-1.574A2.98,2.98,0,0,1,463.588,175.807Z" transform="translate(-451.646 -150.16)" fill="#732800"/>
      </g>
    </g>
  </g>
</svg>
